G04 #@! TF.FileFunction,Copper,L2,Bot,Signal*
%FSLAX46Y46*%
G04 Gerber Fmt 4.6, Leading zero omitted, Abs format (unit mm)*
G04 Created by KiCad (PCBNEW 4.0.4-stable) date 11/27/16 02:50:31*
%MOMM*%
%LPD*%
G01*
G04 APERTURE LIST*
%ADD10C,0.100000*%
%ADD11O,2.499360X1.744980*%
%ADD12O,2.499360X1.747520*%
%ADD13C,5.000000*%
%ADD14C,2.500000*%
%ADD15R,2.500000X2.500000*%
%ADD16C,1.000000*%
%ADD17C,0.250000*%
%ADD18C,0.500000*%
%ADD19C,1.000000*%
%ADD20C,0.254000*%
G04 APERTURE END LIST*
D10*
D11*
X181051200Y-97764600D03*
D12*
X181051200Y-95224600D03*
X181051200Y-92684600D03*
D13*
X184543700Y-107924600D03*
X184543700Y-82524600D03*
D14*
X100457000Y-91770200D03*
D15*
X100457000Y-96770200D03*
D14*
X163004500Y-107797600D03*
D15*
X168004500Y-107797600D03*
X204368400Y-96774000D03*
D14*
X204368400Y-91774000D03*
D16*
X163000000Y-100000000D03*
X163000000Y-102000000D03*
X163000000Y-104000000D03*
X115000000Y-93000000D03*
X113500000Y-93000000D03*
X112000000Y-93000000D03*
X199000000Y-80000000D03*
X199000000Y-78000000D03*
X201000000Y-78000000D03*
X201000000Y-80000000D03*
X172000000Y-110000000D03*
X174000000Y-110000000D03*
X174000000Y-108000000D03*
X172000000Y-108000000D03*
X128000000Y-96000000D03*
X126000000Y-96000000D03*
X126000000Y-94000000D03*
X128000000Y-94000000D03*
X107000000Y-96000000D03*
X109000000Y-96000000D03*
X109000000Y-98000000D03*
X107000000Y-98000000D03*
X149000000Y-78000000D03*
X149000000Y-80000000D03*
X149000000Y-82000000D03*
X149000000Y-84000000D03*
X149000000Y-86000000D03*
X149000000Y-88000000D03*
X149000000Y-90000000D03*
X149000000Y-92000000D03*
X149000000Y-94000000D03*
X149000000Y-96000000D03*
X149000000Y-98000000D03*
X149000000Y-100000000D03*
X149000000Y-102000000D03*
X149000000Y-104000000D03*
X147000000Y-104000000D03*
X145000000Y-104000000D03*
X143000000Y-104000000D03*
X141000000Y-104000000D03*
X139000000Y-104000000D03*
X137000000Y-104000000D03*
X137000000Y-102000000D03*
X139000000Y-102000000D03*
X141000000Y-102000000D03*
X143000000Y-102000000D03*
X145000000Y-102000000D03*
X147000000Y-88000000D03*
X147000000Y-86000000D03*
X147000000Y-84000000D03*
X147000000Y-82000000D03*
X147000000Y-80000000D03*
X147000000Y-78000000D03*
X137000000Y-78000000D03*
X139000000Y-78000000D03*
X141000000Y-78000000D03*
X143000000Y-78000000D03*
X145000000Y-78000000D03*
X145000000Y-80000000D03*
X145000000Y-82000000D03*
X145000000Y-84000000D03*
X145000000Y-86000000D03*
X145000000Y-88000000D03*
X143000000Y-88000000D03*
X141000000Y-88000000D03*
X139000000Y-88000000D03*
X137000000Y-88000000D03*
X147000000Y-102000000D03*
X147000000Y-100000000D03*
X147000000Y-98000000D03*
X147000000Y-96000000D03*
X147000000Y-94000000D03*
X147000000Y-92000000D03*
X147000000Y-90000000D03*
X145000000Y-90000000D03*
X143000000Y-90000000D03*
X140991000Y-90000000D03*
X139000000Y-90000000D03*
X137000000Y-90000000D03*
X128000000Y-86500000D03*
X126500000Y-86500000D03*
X132969000Y-81280000D03*
X134366000Y-81280000D03*
D17*
X163000000Y-102000000D02*
X163000000Y-100000000D01*
X163004500Y-107797600D02*
X163004500Y-104004500D01*
X163004500Y-104004500D02*
X163000000Y-104000000D01*
X113500000Y-93000000D02*
X115000000Y-93000000D01*
D18*
X112000000Y-93000000D02*
X115000000Y-93000000D01*
D17*
X201000000Y-78000000D02*
X199000000Y-78000000D01*
X198000000Y-95548000D02*
X198000000Y-83000000D01*
X198000000Y-83000000D02*
X201000000Y-80000000D01*
X199226000Y-96774000D02*
X198000000Y-95548000D01*
X204368400Y-96774000D02*
X199226000Y-96774000D01*
X174000000Y-110000000D02*
X172000000Y-110000000D01*
X172000000Y-108000000D02*
X174000000Y-108000000D01*
X126000000Y-96000000D02*
X128000000Y-96000000D01*
X128000000Y-94000000D02*
X126000000Y-94000000D01*
X109000000Y-96000000D02*
X107000000Y-96000000D01*
X107000000Y-98000000D02*
X109000000Y-98000000D01*
D18*
X149000000Y-82000000D02*
X149000000Y-80000000D01*
X149000000Y-86000000D02*
X149000000Y-84000000D01*
X149000000Y-90000000D02*
X149000000Y-88000000D01*
X149000000Y-94000000D02*
X149000000Y-92000000D01*
X149000000Y-100000000D02*
X149000000Y-98000000D01*
X149000000Y-104000000D02*
X149000000Y-102000000D01*
X147000000Y-104000000D02*
X149000000Y-104000000D01*
X143000000Y-104000000D02*
X145000000Y-104000000D01*
X139000000Y-104000000D02*
X141000000Y-104000000D01*
X137000000Y-102000000D02*
X137000000Y-104000000D01*
X141000000Y-102000000D02*
X139000000Y-102000000D01*
X145000000Y-102000000D02*
X143000000Y-102000000D01*
X147000000Y-86000000D02*
X147000000Y-88000000D01*
X147000000Y-82000000D02*
X147000000Y-84000000D01*
X147000000Y-78000000D02*
X147000000Y-80000000D01*
X139000000Y-78000000D02*
X137000000Y-78000000D01*
X143000000Y-78000000D02*
X141000000Y-78000000D01*
X145000000Y-80000000D02*
X145000000Y-78000000D01*
X145000000Y-84000000D02*
X145000000Y-82000000D01*
X145000000Y-88000000D02*
X145000000Y-86000000D01*
X141000000Y-88000000D02*
X143000000Y-88000000D01*
X137000000Y-88000000D02*
X139000000Y-88000000D01*
X147000000Y-100000000D02*
X147000000Y-102000000D01*
X147000000Y-96000000D02*
X147000000Y-98000000D01*
X147000000Y-92000000D02*
X147000000Y-94000000D01*
X145000000Y-90000000D02*
X147000000Y-90000000D01*
X140991000Y-90000000D02*
X143000000Y-90000000D01*
X139000000Y-90000000D02*
X140991000Y-90000000D01*
X137000000Y-90000000D02*
X139000000Y-90000000D01*
X132969000Y-81280000D02*
X128000000Y-86249000D01*
X128000000Y-86249000D02*
X128000000Y-86500000D01*
D19*
X134366000Y-81280000D02*
X132969000Y-81280000D01*
D20*
G36*
X135365000Y-79495620D02*
X135247051Y-79415029D01*
X135000000Y-79365000D01*
X125000000Y-79365000D01*
X124769205Y-79408427D01*
X124557233Y-79544827D01*
X124415029Y-79752949D01*
X124365000Y-80000000D01*
X124365000Y-87500000D01*
X124408427Y-87730795D01*
X124544827Y-87942767D01*
X124752949Y-88084971D01*
X125000000Y-88135000D01*
X135000000Y-88135000D01*
X135230795Y-88091573D01*
X135365000Y-88005215D01*
X135365000Y-100365000D01*
X116635000Y-100365000D01*
X116635000Y-92000000D01*
X116591573Y-91769205D01*
X116455173Y-91557233D01*
X116247051Y-91415029D01*
X116000000Y-91365000D01*
X111000000Y-91365000D01*
X110769205Y-91408427D01*
X110557233Y-91544827D01*
X110415029Y-91752949D01*
X110365000Y-92000000D01*
X110365000Y-110000000D01*
X110408427Y-110230795D01*
X110544827Y-110442767D01*
X110752949Y-110584971D01*
X111000000Y-110635000D01*
X165000000Y-110635000D01*
X165230795Y-110591573D01*
X165442767Y-110455173D01*
X165584971Y-110247051D01*
X165635000Y-110000000D01*
X165635000Y-108545454D01*
X181408157Y-108545454D01*
X181884427Y-109698115D01*
X182765547Y-110580774D01*
X183917374Y-111059054D01*
X185164554Y-111060143D01*
X186317215Y-110583873D01*
X186380949Y-110520250D01*
X202372545Y-110520250D01*
X202771639Y-111486132D01*
X203509981Y-112225764D01*
X204475165Y-112626543D01*
X205520250Y-112627455D01*
X206486132Y-112228361D01*
X207225764Y-111490019D01*
X207626543Y-110524835D01*
X207627455Y-109479750D01*
X207228361Y-108513868D01*
X206490019Y-107774236D01*
X205524835Y-107373457D01*
X204479750Y-107372545D01*
X203513868Y-107771639D01*
X202774236Y-108509981D01*
X202373457Y-109475165D01*
X202372545Y-110520250D01*
X186380949Y-110520250D01*
X187199874Y-109702753D01*
X187678154Y-108550926D01*
X187679243Y-107303746D01*
X187202973Y-106151085D01*
X186321853Y-105268426D01*
X185170026Y-104790146D01*
X183922846Y-104789057D01*
X182770185Y-105265327D01*
X181887526Y-106146447D01*
X181409246Y-107298274D01*
X181408157Y-108545454D01*
X165635000Y-108545454D01*
X165635000Y-99000000D01*
X165591573Y-98769205D01*
X165455173Y-98557233D01*
X165247051Y-98415029D01*
X165000000Y-98365000D01*
X161000000Y-98365000D01*
X160769205Y-98408427D01*
X160635000Y-98494785D01*
X160635000Y-92684600D01*
X179129597Y-92684600D01*
X179244445Y-93261977D01*
X179571503Y-93751454D01*
X179875533Y-93954600D01*
X179571503Y-94157746D01*
X179244445Y-94647223D01*
X179129597Y-95224600D01*
X179244445Y-95801977D01*
X179571503Y-96291454D01*
X179876018Y-96494925D01*
X179571131Y-96698644D01*
X179244348Y-97187709D01*
X179129597Y-97764600D01*
X179244348Y-98341491D01*
X179571131Y-98830556D01*
X180060196Y-99157339D01*
X180637087Y-99272090D01*
X181465313Y-99272090D01*
X182042204Y-99157339D01*
X182531269Y-98830556D01*
X182858052Y-98341491D01*
X182972803Y-97764600D01*
X182858052Y-97187709D01*
X182531269Y-96698644D01*
X182226382Y-96494925D01*
X182530897Y-96291454D01*
X182857955Y-95801977D01*
X182972803Y-95224600D01*
X182857955Y-94647223D01*
X182530897Y-94157746D01*
X182226867Y-93954600D01*
X182530897Y-93751454D01*
X182857955Y-93261977D01*
X182972803Y-92684600D01*
X182865928Y-92147305D01*
X202483074Y-92147305D01*
X202769443Y-92840372D01*
X203299239Y-93371093D01*
X203991805Y-93658672D01*
X204741705Y-93659326D01*
X205434772Y-93372957D01*
X205965493Y-92843161D01*
X206253072Y-92150595D01*
X206253726Y-91400695D01*
X205967357Y-90707628D01*
X205437561Y-90176907D01*
X204744995Y-89889328D01*
X203995095Y-89888674D01*
X203302028Y-90175043D01*
X202771307Y-90704839D01*
X202483728Y-91397405D01*
X202483074Y-92147305D01*
X182865928Y-92147305D01*
X182857955Y-92107223D01*
X182530897Y-91617746D01*
X182041420Y-91290688D01*
X181464043Y-91175840D01*
X180638357Y-91175840D01*
X180060980Y-91290688D01*
X179571503Y-91617746D01*
X179244445Y-92107223D01*
X179129597Y-92684600D01*
X160635000Y-92684600D01*
X160635000Y-83145454D01*
X181408157Y-83145454D01*
X181884427Y-84298115D01*
X182765547Y-85180774D01*
X183917374Y-85659054D01*
X185164554Y-85660143D01*
X186317215Y-85183873D01*
X187199874Y-84302753D01*
X187678154Y-83150926D01*
X187679243Y-81903746D01*
X187202973Y-80751085D01*
X186972541Y-80520250D01*
X202372545Y-80520250D01*
X202771639Y-81486132D01*
X203509981Y-82225764D01*
X204475165Y-82626543D01*
X205520250Y-82627455D01*
X206486132Y-82228361D01*
X207225764Y-81490019D01*
X207626543Y-80524835D01*
X207627455Y-79479750D01*
X207228361Y-78513868D01*
X206490019Y-77774236D01*
X205524835Y-77373457D01*
X204479750Y-77372545D01*
X203513868Y-77771639D01*
X202774236Y-78509981D01*
X202373457Y-79475165D01*
X202372545Y-80520250D01*
X186972541Y-80520250D01*
X186321853Y-79868426D01*
X185170026Y-79390146D01*
X183922846Y-79389057D01*
X182770185Y-79865327D01*
X181887526Y-80746447D01*
X181409246Y-81898274D01*
X181408157Y-83145454D01*
X160635000Y-83145454D01*
X160635000Y-75685000D01*
X209315000Y-75685000D01*
X209315000Y-114315000D01*
X95685000Y-114315000D01*
X95685000Y-110520250D01*
X97372545Y-110520250D01*
X97771639Y-111486132D01*
X98509981Y-112225764D01*
X99475165Y-112626543D01*
X100520250Y-112627455D01*
X101486132Y-112228361D01*
X102225764Y-111490019D01*
X102626543Y-110524835D01*
X102627455Y-109479750D01*
X102228361Y-108513868D01*
X101490019Y-107774236D01*
X100524835Y-107373457D01*
X99479750Y-107372545D01*
X98513868Y-107771639D01*
X97774236Y-108509981D01*
X97373457Y-109475165D01*
X97372545Y-110520250D01*
X95685000Y-110520250D01*
X95685000Y-92143505D01*
X98571674Y-92143505D01*
X98858043Y-92836572D01*
X99387839Y-93367293D01*
X100080405Y-93654872D01*
X100830305Y-93655526D01*
X101523372Y-93369157D01*
X102054093Y-92839361D01*
X102341672Y-92146795D01*
X102342326Y-91396895D01*
X102055957Y-90703828D01*
X101526161Y-90173107D01*
X100833595Y-89885528D01*
X100083695Y-89884874D01*
X99390628Y-90171243D01*
X98859907Y-90701039D01*
X98572328Y-91393605D01*
X98571674Y-92143505D01*
X95685000Y-92143505D01*
X95685000Y-80520250D01*
X97372545Y-80520250D01*
X97771639Y-81486132D01*
X98509981Y-82225764D01*
X99475165Y-82626543D01*
X100520250Y-82627455D01*
X101486132Y-82228361D01*
X102225764Y-81490019D01*
X102626543Y-80524835D01*
X102627455Y-79479750D01*
X102228361Y-78513868D01*
X101490019Y-77774236D01*
X100524835Y-77373457D01*
X99479750Y-77372545D01*
X98513868Y-77771639D01*
X97774236Y-78509981D01*
X97373457Y-79475165D01*
X97372545Y-80520250D01*
X95685000Y-80520250D01*
X95685000Y-75685000D01*
X135365000Y-75685000D01*
X135365000Y-79495620D01*
X135365000Y-79495620D01*
G37*
X135365000Y-79495620D02*
X135247051Y-79415029D01*
X135000000Y-79365000D01*
X125000000Y-79365000D01*
X124769205Y-79408427D01*
X124557233Y-79544827D01*
X124415029Y-79752949D01*
X124365000Y-80000000D01*
X124365000Y-87500000D01*
X124408427Y-87730795D01*
X124544827Y-87942767D01*
X124752949Y-88084971D01*
X125000000Y-88135000D01*
X135000000Y-88135000D01*
X135230795Y-88091573D01*
X135365000Y-88005215D01*
X135365000Y-100365000D01*
X116635000Y-100365000D01*
X116635000Y-92000000D01*
X116591573Y-91769205D01*
X116455173Y-91557233D01*
X116247051Y-91415029D01*
X116000000Y-91365000D01*
X111000000Y-91365000D01*
X110769205Y-91408427D01*
X110557233Y-91544827D01*
X110415029Y-91752949D01*
X110365000Y-92000000D01*
X110365000Y-110000000D01*
X110408427Y-110230795D01*
X110544827Y-110442767D01*
X110752949Y-110584971D01*
X111000000Y-110635000D01*
X165000000Y-110635000D01*
X165230795Y-110591573D01*
X165442767Y-110455173D01*
X165584971Y-110247051D01*
X165635000Y-110000000D01*
X165635000Y-108545454D01*
X181408157Y-108545454D01*
X181884427Y-109698115D01*
X182765547Y-110580774D01*
X183917374Y-111059054D01*
X185164554Y-111060143D01*
X186317215Y-110583873D01*
X186380949Y-110520250D01*
X202372545Y-110520250D01*
X202771639Y-111486132D01*
X203509981Y-112225764D01*
X204475165Y-112626543D01*
X205520250Y-112627455D01*
X206486132Y-112228361D01*
X207225764Y-111490019D01*
X207626543Y-110524835D01*
X207627455Y-109479750D01*
X207228361Y-108513868D01*
X206490019Y-107774236D01*
X205524835Y-107373457D01*
X204479750Y-107372545D01*
X203513868Y-107771639D01*
X202774236Y-108509981D01*
X202373457Y-109475165D01*
X202372545Y-110520250D01*
X186380949Y-110520250D01*
X187199874Y-109702753D01*
X187678154Y-108550926D01*
X187679243Y-107303746D01*
X187202973Y-106151085D01*
X186321853Y-105268426D01*
X185170026Y-104790146D01*
X183922846Y-104789057D01*
X182770185Y-105265327D01*
X181887526Y-106146447D01*
X181409246Y-107298274D01*
X181408157Y-108545454D01*
X165635000Y-108545454D01*
X165635000Y-99000000D01*
X165591573Y-98769205D01*
X165455173Y-98557233D01*
X165247051Y-98415029D01*
X165000000Y-98365000D01*
X161000000Y-98365000D01*
X160769205Y-98408427D01*
X160635000Y-98494785D01*
X160635000Y-92684600D01*
X179129597Y-92684600D01*
X179244445Y-93261977D01*
X179571503Y-93751454D01*
X179875533Y-93954600D01*
X179571503Y-94157746D01*
X179244445Y-94647223D01*
X179129597Y-95224600D01*
X179244445Y-95801977D01*
X179571503Y-96291454D01*
X179876018Y-96494925D01*
X179571131Y-96698644D01*
X179244348Y-97187709D01*
X179129597Y-97764600D01*
X179244348Y-98341491D01*
X179571131Y-98830556D01*
X180060196Y-99157339D01*
X180637087Y-99272090D01*
X181465313Y-99272090D01*
X182042204Y-99157339D01*
X182531269Y-98830556D01*
X182858052Y-98341491D01*
X182972803Y-97764600D01*
X182858052Y-97187709D01*
X182531269Y-96698644D01*
X182226382Y-96494925D01*
X182530897Y-96291454D01*
X182857955Y-95801977D01*
X182972803Y-95224600D01*
X182857955Y-94647223D01*
X182530897Y-94157746D01*
X182226867Y-93954600D01*
X182530897Y-93751454D01*
X182857955Y-93261977D01*
X182972803Y-92684600D01*
X182865928Y-92147305D01*
X202483074Y-92147305D01*
X202769443Y-92840372D01*
X203299239Y-93371093D01*
X203991805Y-93658672D01*
X204741705Y-93659326D01*
X205434772Y-93372957D01*
X205965493Y-92843161D01*
X206253072Y-92150595D01*
X206253726Y-91400695D01*
X205967357Y-90707628D01*
X205437561Y-90176907D01*
X204744995Y-89889328D01*
X203995095Y-89888674D01*
X203302028Y-90175043D01*
X202771307Y-90704839D01*
X202483728Y-91397405D01*
X202483074Y-92147305D01*
X182865928Y-92147305D01*
X182857955Y-92107223D01*
X182530897Y-91617746D01*
X182041420Y-91290688D01*
X181464043Y-91175840D01*
X180638357Y-91175840D01*
X180060980Y-91290688D01*
X179571503Y-91617746D01*
X179244445Y-92107223D01*
X179129597Y-92684600D01*
X160635000Y-92684600D01*
X160635000Y-83145454D01*
X181408157Y-83145454D01*
X181884427Y-84298115D01*
X182765547Y-85180774D01*
X183917374Y-85659054D01*
X185164554Y-85660143D01*
X186317215Y-85183873D01*
X187199874Y-84302753D01*
X187678154Y-83150926D01*
X187679243Y-81903746D01*
X187202973Y-80751085D01*
X186972541Y-80520250D01*
X202372545Y-80520250D01*
X202771639Y-81486132D01*
X203509981Y-82225764D01*
X204475165Y-82626543D01*
X205520250Y-82627455D01*
X206486132Y-82228361D01*
X207225764Y-81490019D01*
X207626543Y-80524835D01*
X207627455Y-79479750D01*
X207228361Y-78513868D01*
X206490019Y-77774236D01*
X205524835Y-77373457D01*
X204479750Y-77372545D01*
X203513868Y-77771639D01*
X202774236Y-78509981D01*
X202373457Y-79475165D01*
X202372545Y-80520250D01*
X186972541Y-80520250D01*
X186321853Y-79868426D01*
X185170026Y-79390146D01*
X183922846Y-79389057D01*
X182770185Y-79865327D01*
X181887526Y-80746447D01*
X181409246Y-81898274D01*
X181408157Y-83145454D01*
X160635000Y-83145454D01*
X160635000Y-75685000D01*
X209315000Y-75685000D01*
X209315000Y-114315000D01*
X95685000Y-114315000D01*
X95685000Y-110520250D01*
X97372545Y-110520250D01*
X97771639Y-111486132D01*
X98509981Y-112225764D01*
X99475165Y-112626543D01*
X100520250Y-112627455D01*
X101486132Y-112228361D01*
X102225764Y-111490019D01*
X102626543Y-110524835D01*
X102627455Y-109479750D01*
X102228361Y-108513868D01*
X101490019Y-107774236D01*
X100524835Y-107373457D01*
X99479750Y-107372545D01*
X98513868Y-107771639D01*
X97774236Y-108509981D01*
X97373457Y-109475165D01*
X97372545Y-110520250D01*
X95685000Y-110520250D01*
X95685000Y-92143505D01*
X98571674Y-92143505D01*
X98858043Y-92836572D01*
X99387839Y-93367293D01*
X100080405Y-93654872D01*
X100830305Y-93655526D01*
X101523372Y-93369157D01*
X102054093Y-92839361D01*
X102341672Y-92146795D01*
X102342326Y-91396895D01*
X102055957Y-90703828D01*
X101526161Y-90173107D01*
X100833595Y-89885528D01*
X100083695Y-89884874D01*
X99390628Y-90171243D01*
X98859907Y-90701039D01*
X98572328Y-91393605D01*
X98571674Y-92143505D01*
X95685000Y-92143505D01*
X95685000Y-80520250D01*
X97372545Y-80520250D01*
X97771639Y-81486132D01*
X98509981Y-82225764D01*
X99475165Y-82626543D01*
X100520250Y-82627455D01*
X101486132Y-82228361D01*
X102225764Y-81490019D01*
X102626543Y-80524835D01*
X102627455Y-79479750D01*
X102228361Y-78513868D01*
X101490019Y-77774236D01*
X100524835Y-77373457D01*
X99479750Y-77372545D01*
X98513868Y-77771639D01*
X97774236Y-78509981D01*
X97373457Y-79475165D01*
X97372545Y-80520250D01*
X95685000Y-80520250D01*
X95685000Y-75685000D01*
X135365000Y-75685000D01*
X135365000Y-79495620D01*
G36*
X134873000Y-87373000D02*
X125127000Y-87373000D01*
X125127000Y-80127000D01*
X134873000Y-80127000D01*
X134873000Y-87373000D01*
X134873000Y-87373000D01*
G37*
X134873000Y-87373000D02*
X125127000Y-87373000D01*
X125127000Y-80127000D01*
X134873000Y-80127000D01*
X134873000Y-87373000D01*
G36*
X115873000Y-106000000D02*
X115883006Y-106049410D01*
X115911447Y-106091035D01*
X115953841Y-106118315D01*
X116000000Y-106127000D01*
X161000000Y-106127000D01*
X161049410Y-106116994D01*
X161091035Y-106088553D01*
X161118315Y-106046159D01*
X161127000Y-106000000D01*
X161127000Y-99127000D01*
X164873000Y-99127000D01*
X164873000Y-109873000D01*
X111127000Y-109873000D01*
X111127000Y-92127000D01*
X115873000Y-92127000D01*
X115873000Y-106000000D01*
X115873000Y-106000000D01*
G37*
X115873000Y-106000000D02*
X115883006Y-106049410D01*
X115911447Y-106091035D01*
X115953841Y-106118315D01*
X116000000Y-106127000D01*
X161000000Y-106127000D01*
X161049410Y-106116994D01*
X161091035Y-106088553D01*
X161118315Y-106046159D01*
X161127000Y-106000000D01*
X161127000Y-99127000D01*
X164873000Y-99127000D01*
X164873000Y-109873000D01*
X111127000Y-109873000D01*
X111127000Y-92127000D01*
X115873000Y-92127000D01*
X115873000Y-106000000D01*
G36*
X159873000Y-105365000D02*
X116635000Y-105365000D01*
X116635000Y-101127000D01*
X136000000Y-101127000D01*
X136049410Y-101116994D01*
X136091035Y-101088553D01*
X136118315Y-101046159D01*
X136127000Y-101000000D01*
X136127000Y-75685000D01*
X159873000Y-75685000D01*
X159873000Y-105365000D01*
X159873000Y-105365000D01*
G37*
X159873000Y-105365000D02*
X116635000Y-105365000D01*
X116635000Y-101127000D01*
X136000000Y-101127000D01*
X136049410Y-101116994D01*
X136091035Y-101088553D01*
X136118315Y-101046159D01*
X136127000Y-101000000D01*
X136127000Y-75685000D01*
X159873000Y-75685000D01*
X159873000Y-105365000D01*
M02*
