G04 #@! TF.FileFunction,Soldermask,Top*
%FSLAX46Y46*%
G04 Gerber Fmt 4.6, Leading zero omitted, Abs format (unit mm)*
G04 Created by KiCad (PCBNEW 4.0.4-stable) date 11/27/16 02:50:32*
%MOMM*%
%LPD*%
G01*
G04 APERTURE LIST*
%ADD10C,0.100000*%
%ADD11R,9.400000X10.800000*%
%ADD12R,4.600000X1.390000*%
%ADD13R,1.250000X1.500000*%
%ADD14R,2.230000X1.800000*%
%ADD15R,1.500000X1.250000*%
%ADD16R,3.600000X3.200000*%
%ADD17R,2.900680X5.400040*%
%ADD18R,3.048000X1.651000*%
%ADD19R,6.096000X6.096000*%
%ADD20R,1.300000X1.500000*%
%ADD21R,2.500000X2.000000*%
%ADD22R,0.890000X0.420000*%
%ADD23R,0.840000X0.940000*%
%ADD24O,2.499360X1.744980*%
%ADD25O,2.499360X1.747520*%
%ADD26C,5.000000*%
%ADD27C,2.500000*%
%ADD28R,2.500000X2.500000*%
%ADD29R,2.430000X2.370000*%
G04 APERTURE END LIST*
D10*
D11*
X141503400Y-95986600D03*
D12*
X132353400Y-98526600D03*
X132353400Y-93446600D03*
D13*
X173750000Y-93000000D03*
X173750000Y-95500000D03*
D14*
X173750000Y-102710000D03*
X173750000Y-99790000D03*
D13*
X196037200Y-85044600D03*
X196037200Y-82544600D03*
D15*
X123424000Y-81280000D03*
X120924000Y-81280000D03*
D13*
X117602000Y-83038000D03*
X117602000Y-80538000D03*
X125984000Y-83038000D03*
X125984000Y-80538000D03*
X112522000Y-90150000D03*
X112522000Y-87650000D03*
D16*
X196098600Y-91465400D03*
X187898600Y-91465400D03*
X196098600Y-99009200D03*
X187898600Y-99009200D03*
D17*
X154208480Y-85953600D03*
X164109400Y-85953600D03*
D18*
X133604000Y-81280000D03*
D19*
X139954000Y-83566000D03*
D18*
X133604000Y-85852000D03*
D20*
X177000000Y-95400000D03*
X177000000Y-98100000D03*
X196011800Y-105914200D03*
X196011800Y-108614200D03*
X112522000Y-80438000D03*
X112522000Y-83138000D03*
D21*
X129159000Y-80296000D03*
X129159000Y-84296000D03*
D20*
X115062000Y-80438000D03*
X115062000Y-83138000D03*
X115062000Y-90250000D03*
X115062000Y-87550000D03*
X117602000Y-87550000D03*
X117602000Y-90250000D03*
D22*
X119688000Y-83988000D03*
X119688000Y-84638000D03*
X119688000Y-85288000D03*
X119688000Y-85938000D03*
X123898000Y-85938000D03*
X123898000Y-85288000D03*
X123898000Y-84638000D03*
X123898000Y-83988000D03*
D23*
X122213000Y-85433000D03*
X122213000Y-84493000D03*
X121373000Y-85433000D03*
X121373000Y-84493000D03*
D24*
X181051200Y-97764600D03*
D25*
X181051200Y-95224600D03*
X181051200Y-92684600D03*
D26*
X184543700Y-107924600D03*
X184543700Y-82524600D03*
X100000000Y-80000000D03*
X100000000Y-110000000D03*
X205000000Y-110000000D03*
X205000000Y-80000000D03*
D27*
X100457000Y-91770200D03*
D28*
X100457000Y-96770200D03*
D27*
X163004500Y-107797600D03*
D28*
X168004500Y-107797600D03*
X204368400Y-96774000D03*
D27*
X204368400Y-91774000D03*
D29*
X108000000Y-85120000D03*
X108000000Y-78880000D03*
X169000000Y-97120000D03*
X169000000Y-90880000D03*
M02*
