<?xml version="1.0" encoding="UTF-8" standalone="no"?>
<!-- Created with Inkscape (http://www.inkscape.org/) -->

<svg
   xmlns:dc="http://purl.org/dc/elements/1.1/"
   xmlns:cc="http://creativecommons.org/ns#"
   xmlns:rdf="http://www.w3.org/1999/02/22-rdf-syntax-ns#"
   xmlns:svg="http://www.w3.org/2000/svg"
   xmlns="http://www.w3.org/2000/svg"
   xmlns:sodipodi="http://sodipodi.sourceforge.net/DTD/sodipodi-0.dtd"
   xmlns:inkscape="http://www.inkscape.org/namespaces/inkscape"
   id="svg2"
   version="1.1"
   inkscape:version="0.91 r13725"
   xml:space="preserve"
   width="326.31793"
   height="289.92834"
   viewBox="0 0 326.31793 289.92834"
   sodipodi:docname="LM317.svg"><metadata
     id="metadata8"><rdf:RDF><cc:Work
         rdf:about=""><dc:format>image/svg+xml</dc:format><dc:type
           rdf:resource="http://purl.org/dc/dcmitype/StillImage" /><dc:title></dc:title></cc:Work></rdf:RDF></metadata><defs
     id="defs6"><clipPath
       clipPathUnits="userSpaceOnUse"
       id="clipPath24"><path
         d="m 0,0 258.5,0 0,229.7 L 0,229.7 0,0 Z"
         id="path26"
         inkscape:connector-curvature="0" /></clipPath><clipPath
       clipPathUnits="userSpaceOnUse"
       id="clipPath206"><path
         d="M 0,0 93,0 93,23 0,23 0,0 Z"
         id="path208"
         inkscape:connector-curvature="0" /></clipPath><clipPath
       clipPathUnits="userSpaceOnUse"
       id="clipPath24-9"><path
         d="m 0,0 258.5,0 0,229.7 L 0,229.7 0,0 Z"
         id="path26-3"
         inkscape:connector-curvature="0" /></clipPath></defs><sodipodi:namedview
     pagecolor="#ffffff"
     bordercolor="#666666"
     borderopacity="1"
     objecttolerance="10"
     gridtolerance="10"
     guidetolerance="10"
     inkscape:pageopacity="0"
     inkscape:pageshadow="2"
     inkscape:window-width="1440"
     inkscape:window-height="847"
     id="namedview4"
     showgrid="false"
     fit-margin-top="0"
     fit-margin-left="0"
     fit-margin-right="0"
     fit-margin-bottom="0"
     inkscape:zoom="0.67425131"
     inkscape:cx="108.34086"
     inkscape:cy="224.46917"
     inkscape:window-x="-8"
     inkscape:window-y="-8"
     inkscape:window-maximized="1"
     inkscape:current-layer="g10" /><g
     id="g10"
     inkscape:groupmode="layer"
     inkscape:label="LM317"
     transform="matrix(1.25,0,0,-1.25,-271.3971,672.95721)"><g
       transform="translate(41.087029,11.111054)"
       id="g16"><g
         transform="matrix(1.01,0,0,1.01,176,295.3)"
         id="g18"><g
           id="g20"><g
             clip-path="url(#clipPath24-9)"
             id="g22"><g
               transform="scale(0.1,0.1)"
               id="g28"><path
                 inkscape:connector-curvature="0"
                 id="path30"
                 style="fill:none;stroke:#000000;stroke-width:10.00059986;stroke-linecap:butt;stroke-linejoin:miter;stroke-miterlimit:10;stroke-dasharray:none;stroke-opacity:1"
                 d="m 1092.75,1290 56.3,0" /><path
                 inkscape:connector-curvature="0"
                 id="path32"
                 style="fill:none;stroke:#000000;stroke-width:7.19999981;stroke-linecap:round;stroke-linejoin:round;stroke-miterlimit:10;stroke-dasharray:none;stroke-opacity:1"
                 d="m 1047.75,1200 0,360 360,-180 -360,-180 z" /><g
                 transform="scale(10,10)"
                 id="g34"><text
                   id="text36"
                   style="font-variant:normal;font-weight:normal;font-size:9.99989986px;font-family:Arial;-inkscape-font-specification:ArialMT;writing-mode:lr-tb;fill:#000000;fill-opacity:1;fill-rule:nonzero;stroke:none"
                   transform="matrix(1,0,0,-1,108.715,143.72)"><tspan
                     id="tspan38"
                     y="0"
                     x="0">+</tspan></text>
</g><path
                 inkscape:connector-curvature="0"
                 id="path40"
                 style="fill:none;stroke:#000000;stroke-width:7.19999981;stroke-linecap:round;stroke-linejoin:round;stroke-miterlimit:10;stroke-dasharray:none;stroke-opacity:1"
                 d="m 1767.75,1380 90,0" /><path
                 inkscape:connector-curvature="0"
                 id="path42"
                 style="fill:none;stroke:#000000;stroke-width:7.19999981;stroke-linecap:round;stroke-linejoin:round;stroke-miterlimit:10;stroke-dasharray:none;stroke-opacity:1"
                 d="m 1857.75,1323.8 202.5,-78.8" /><path
                 inkscape:connector-curvature="0"
                 id="path44"
                 style="fill:none;stroke:#000000;stroke-width:11.99909973;stroke-linecap:round;stroke-linejoin:round;stroke-miterlimit:10;stroke-dasharray:none;stroke-opacity:1"
                 d="m 1857.75,1470 0,-180" /><path
                 inkscape:connector-curvature="0"
                 id="path46"
                 style="fill:#000000;fill-opacity:1;fill-rule:evenodd;stroke:none"
                 d="m 1919.65,1274.3 23,49.5 50.1,-49.9 -73.1,0.4" /><path
                 inkscape:connector-curvature="0"
                 id="path48"
                 style="fill:none;stroke:#000000;stroke-width:7.19999981;stroke-linecap:round;stroke-linejoin:round;stroke-miterlimit:10;stroke-dasharray:none;stroke-opacity:1"
                 d="m 1919.65,1274.3 23,49.5 50.1,-49.9 -73.1,0.4 z" /><path
                 inkscape:connector-curvature="0"
                 id="path50"
                 style="fill:none;stroke:#000000;stroke-width:7.19999981;stroke-linecap:round;stroke-linejoin:round;stroke-miterlimit:10;stroke-dasharray:none;stroke-opacity:1"
                 d="m 2060.25,1245 67.5,0" /><path
                 inkscape:connector-curvature="0"
                 id="path52"
                 style="fill:none;stroke:#000000;stroke-width:7.19999981;stroke-linecap:round;stroke-linejoin:round;stroke-miterlimit:10;stroke-dasharray:none;stroke-opacity:1"
                 d="m 1857.75,1447.5 180,67.5" /><path
                 inkscape:connector-curvature="0"
                 id="path54"
                 style="fill:none;stroke:#000000;stroke-width:7.19999981;stroke-linecap:round;stroke-linejoin:round;stroke-miterlimit:10;stroke-dasharray:none;stroke-opacity:1"
                 d="m 2397.75,1515 -360,0" /><path
                 inkscape:connector-curvature="0"
                 id="path56"
                 style="fill:none;stroke:#000000;stroke-width:7.19999981;stroke-linecap:round;stroke-linejoin:round;stroke-miterlimit:10;stroke-dasharray:none;stroke-opacity:1"
                 d="m 2127.75,1245 90,0" /><path
                 inkscape:connector-curvature="0"
                 id="path58"
                 style="fill:none;stroke:#000000;stroke-width:7.19999981;stroke-linecap:round;stroke-linejoin:round;stroke-miterlimit:10;stroke-dasharray:none;stroke-opacity:1"
                 d="m 2217.75,1188.8 180,-67.5" /><path
                 inkscape:connector-curvature="0"
                 id="path60"
                 style="fill:none;stroke:#000000;stroke-width:11.99909973;stroke-linecap:round;stroke-linejoin:round;stroke-miterlimit:10;stroke-dasharray:none;stroke-opacity:1"
                 d="m 2217.75,1335 0,-180" /><path
                 inkscape:connector-curvature="0"
                 id="path62"
                 style="fill:#000000;fill-opacity:1;fill-rule:evenodd;stroke:none"
                 d="m 2279.65,1139.3 23,49.5 50.1,-49.91 -73.1,0.41" /><path
                 inkscape:connector-curvature="0"
                 id="path64"
                 style="fill:none;stroke:#000000;stroke-width:7.19999981;stroke-linecap:round;stroke-linejoin:round;stroke-miterlimit:10;stroke-dasharray:none;stroke-opacity:1"
                 d="m 2279.65,1139.3 23,49.5 50.1,-49.91 -73.1,0.41 z" /><path
                 inkscape:connector-curvature="0"
                 id="path66"
                 style="fill:none;stroke:#000000;stroke-width:7.19999981;stroke-linecap:round;stroke-linejoin:round;stroke-miterlimit:10;stroke-dasharray:none;stroke-opacity:1"
                 d="m 2397.75,1121.3 0,-101.3" /><path
                 inkscape:connector-curvature="0"
                 id="path68"
                 style="fill:none;stroke:#000000;stroke-width:7.19999981;stroke-linecap:round;stroke-linejoin:round;stroke-miterlimit:10;stroke-dasharray:none;stroke-opacity:1"
                 d="m 2217.75,1312.5 180,67.5" /><path
                 inkscape:connector-curvature="0"
                 id="path70"
                 style="fill:none;stroke:#000000;stroke-width:7.19999981;stroke-linecap:round;stroke-linejoin:round;stroke-miterlimit:10;stroke-dasharray:none;stroke-opacity:1"
                 d="m 2397.75,1515 0,-135" /><path
                 inkscape:connector-curvature="0"
                 id="path72"
                 style="fill:#000000;fill-opacity:1;fill-rule:evenodd;stroke:none"
                 d="m 552.746,1042.5 -56.199,0 56.199,112.5 56.301,-112.5 -56.301,0" /><path
                 inkscape:connector-curvature="0"
                 id="path74"
                 style="fill:none;stroke:#000000;stroke-width:7.19999981;stroke-linecap:round;stroke-linejoin:round;stroke-miterlimit:10;stroke-dasharray:none;stroke-opacity:1"
                 d="m 552.746,1042.5 -56.199,0 56.199,112.5 56.301,-112.5 -56.301,0 z" /><path
                 inkscape:connector-curvature="0"
                 id="path76"
                 style="fill:none;stroke:#000000;stroke-width:7.19999981;stroke-linecap:round;stroke-linejoin:round;stroke-miterlimit:10;stroke-dasharray:none;stroke-opacity:1"
                 d="m 552.746,929.996 0,360.004" /><path
                 inkscape:connector-curvature="0"
                 id="path78"
                 style="fill:none;stroke:#000000;stroke-width:7.19999981;stroke-linecap:round;stroke-linejoin:round;stroke-miterlimit:10;stroke-dasharray:none;stroke-opacity:1"
                 d="m 462.746,1188.8 30.004,-33.8 119.996,0 30,-33.7" /><path
                 inkscape:connector-curvature="0"
                 id="path80"
                 style="fill:none;stroke:#000000;stroke-width:15.00090027;stroke-linecap:round;stroke-linejoin:round;stroke-miterlimit:10;stroke-dasharray:none;stroke-opacity:1"
                 d="m 1325.25,719.195 667.5,0 0,421.602 -667.5,0 0,-421.602 z" /><g
                 transform="scale(10,10)"
                 id="g82"><text
                   id="text84"
                   style="font-variant:normal;font-weight:normal;font-size:8.99985981px;font-family:Arial;-inkscape-font-specification:ArialMT;writing-mode:lr-tb;fill:#000000;fill-opacity:1;fill-rule:nonzero;stroke:none"
                   transform="matrix(1,0,0,-1,139.145,101.1)"><tspan
                     id="tspan86"
                     sodipodi:role="line"
                     y="0"
                     x="0 7.0018911 11.501822 16.505743 21.839851 26.339855 31.343777 38.84066 46.346893">OverTemp&amp;</tspan><tspan
                     id="tspan88"
                     sodipodi:role="line"
                     y="10.8"
                     x="0.74687499 7.7487659 12.248696 17.252619 22.748058 29.245958 34.249878 37.246834 40.243786 45.247707 50.251633">OverCurrent</tspan><tspan
                     id="tspan90"
                     sodipodi:role="line"
                     y="21.6"
                     x="6.4886751 12.492582 15.490244 20.496498 22.998459 28.004322 32.505108 35.007069 37.007454 42.013317">Protection</tspan></text>
</g><path
                 inkscape:connector-curvature="0"
                 id="path92"
                 style="fill:none;stroke:#000000;stroke-width:7.19999981;stroke-linecap:round;stroke-linejoin:round;stroke-miterlimit:10;stroke-dasharray:none;stroke-opacity:1"
                 d="m 2397.75,772.496 45,-18.699 -90,-37.5 90,-37.598 -90,-37.402 90,-37.5 -90,-37.5 45,-18.801 0,-67.5" /><path
                 inkscape:connector-curvature="0"
                 id="path94"
                 style="fill:none;stroke:#000000;stroke-width:7.19999981;stroke-linecap:round;stroke-linejoin:round;stroke-miterlimit:10;stroke-dasharray:none;stroke-opacity:1"
                 d="m 2397.75,839.996 0,-67.5" /><path
                 inkscape:connector-curvature="0"
                 id="path96"
                 style="fill:none;stroke:#000000;stroke-width:7.19999981;stroke-linecap:round;stroke-linejoin:round;stroke-miterlimit:10;stroke-dasharray:none;stroke-opacity:1"
                 d="m 1407.75,1380 360,0" /><path
                 inkscape:connector-curvature="0"
                 id="path98"
                 style="fill:none;stroke:#000000;stroke-width:7.19999981;stroke-linecap:round;stroke-linejoin:round;stroke-miterlimit:10;stroke-dasharray:none;stroke-opacity:1"
                 d="m 1213.95,1476.39 0,263.61 1183.8,0" /><path
                 inkscape:connector-curvature="0"
                 id="path100"
                 style="fill:none;stroke:#000000;stroke-width:7.19999981;stroke-linecap:round;stroke-linejoin:round;stroke-miterlimit:10;stroke-dasharray:none;stroke-opacity:1"
                 d="m 2397.75,839.996 0,180.004" /><path
                 inkscape:connector-curvature="0"
                 id="path102"
                 style="fill:none;stroke:#000000;stroke-width:7.19999981;stroke-linecap:round;stroke-linejoin:round;stroke-miterlimit:10;stroke-dasharray:none;stroke-opacity:1"
                 d="m 2397.75,839.996 0,90 -405,0" /><path
                 inkscape:connector-curvature="0"
                 id="path104"
                 style="fill:none;stroke:#000000;stroke-width:7.19999981;stroke-linecap:round;stroke-linejoin:round;stroke-miterlimit:10;stroke-dasharray:none;stroke-opacity:1"
                 d="m 1655.25,1138.1 0,241.9" /><path
                 inkscape:connector-curvature="0"
                 id="path106"
                 style="fill:none;stroke:#000000;stroke-width:7.19999981;stroke-linecap:round;stroke-linejoin:round;stroke-miterlimit:10;stroke-dasharray:none;stroke-opacity:1"
                 d="m 2397.75,479.996 0,-45 -1183.8,0 0,848.604" /><path
                 inkscape:connector-curvature="0"
                 id="path108"
                 style="fill:none;stroke:#000000;stroke-width:7.19999981;stroke-linecap:round;stroke-linejoin:round;stroke-miterlimit:10;stroke-dasharray:none;stroke-opacity:1"
                 d="m 1047.75,1290 -95.602,0 0,-281.2 264.402,0" /><path
                 inkscape:connector-curvature="0"
                 id="path110"
                 style="fill:none;stroke:#000000;stroke-width:7.19999981;stroke-linecap:round;stroke-linejoin:round;stroke-miterlimit:10;stroke-dasharray:none;stroke-opacity:1"
                 d="m 1047.75,1470 -495.004,0 0,-180" /><path
                 inkscape:connector-curvature="0"
                 id="path112"
                 style="fill:none;stroke:#000000;stroke-width:7.19999981;stroke-linecap:round;stroke-linejoin:round;stroke-miterlimit:10;stroke-dasharray:none;stroke-opacity:1"
                 d="m 552.746,929.996 0,-180 -270,0" /><path
                 inkscape:connector-curvature="0"
                 id="path114"
                 style="fill:none;stroke:#000000;stroke-width:7.19999981;stroke-linecap:round;stroke-linejoin:round;stroke-miterlimit:10;stroke-dasharray:none;stroke-opacity:1"
                 d="m 2397.75,1515 0,225" /><path
                 inkscape:connector-curvature="0"
                 id="path116"
                 style="fill:#000000;fill-opacity:1;fill-rule:evenodd;stroke:none"
                 d="m 1198.55,1008.8 c 0,9.9 8,17.9 18,17.9 9.9,0 17.9,-8 17.9,-17.9 0,-10.003 -8,-18.003 -17.9,-18.003 -10,0 -18,8 -18,18.003" /><path
                 inkscape:connector-curvature="0"
                 id="path118"
                 style="fill:none;stroke:#000000;stroke-width:7.19999981;stroke-linecap:round;stroke-linejoin:round;stroke-miterlimit:10;stroke-dasharray:none;stroke-opacity:1"
                 d="m 1198.55,1008.8 c 0,9.9 8,17.9 18,17.9 9.9,0 17.9,-8 17.9,-17.9 0,-10.003 -8,-18.003 -17.9,-18.003 -10,0 -18,8 -18,18.003 z" /><path
                 inkscape:connector-curvature="0"
                 id="path120"
                 style="fill:#000000;fill-opacity:1;fill-rule:evenodd;stroke:none"
                 d="m 2379.75,929.996 c 0,9.899 8.1,18 18,18 9.9,0 18,-8.101 18,-18 0,-9.898 -8.1,-18 -18,-18 -9.9,0 -18,8.102 -18,18" /><path
                 inkscape:connector-curvature="0"
                 id="path122"
                 style="fill:none;stroke:#000000;stroke-width:7.19999981;stroke-linecap:round;stroke-linejoin:round;stroke-miterlimit:10;stroke-dasharray:none;stroke-opacity:1"
                 d="m 2379.75,929.996 c 0,9.899 8.1,18 18,18 9.9,0 18,-8.101 18,-18 0,-9.898 -8.1,-18 -18,-18 -9.9,0 -18,8.102 -18,18 z" /><path
                 inkscape:connector-curvature="0"
                 id="path124"
                 style="fill:#000000;fill-opacity:1;fill-rule:evenodd;stroke:none"
                 d="m 1637.25,1380 c 0,9.89 8.1,18 18,18 9.9,0 18,-8.11 18,-18 0,-9.91 -8.1,-18 -18,-18 -9.9,0 -18,8.09 -18,18" /><path
                 inkscape:connector-curvature="0"
                 id="path126"
                 style="fill:none;stroke:#000000;stroke-width:7.19999981;stroke-linecap:round;stroke-linejoin:round;stroke-miterlimit:10;stroke-dasharray:none;stroke-opacity:1"
                 d="m 1637.25,1380 c 0,9.89 8.1,18 18,18 9.9,0 18,-8.11 18,-18 0,-9.91 -8.1,-18 -18,-18 -9.9,0 -18,8.09 -18,18 z" /><path
                 inkscape:connector-curvature="0"
                 id="path128"
                 style="fill:#000000;fill-opacity:1;fill-rule:evenodd;stroke:none"
                 d="m 2379.75,1515 c 0,9.89 8.1,18 18,18 9.9,0 18,-8.11 18,-18 0,-9.91 -8.1,-18 -18,-18 -9.9,0 -18,8.09 -18,18" /><path
                 inkscape:connector-curvature="0"
                 id="path130"
                 style="fill:none;stroke:#000000;stroke-width:7.19999981;stroke-linecap:round;stroke-linejoin:round;stroke-miterlimit:10;stroke-dasharray:none;stroke-opacity:1"
                 d="m 2379.75,1515 c 0,9.89 8.1,18 18,18 9.9,0 18,-8.11 18,-18 0,-9.91 -8.1,-18 -18,-18 -9.9,0 -18,8.09 -18,18 z" /><path
                 inkscape:connector-curvature="0"
                 id="path132"
                 style="fill:none;stroke:#000000;stroke-width:15.00090027;stroke-linecap:round;stroke-linejoin:round;stroke-miterlimit:10;stroke-dasharray:none;stroke-opacity:1"
                 d="m 282.746,209.996 2295,0 0,1890 -2295,0 0,-1890 z" /><path
                 inkscape:connector-curvature="0"
                 id="path134"
                 style="fill:#ffffff;fill-opacity:1;fill-rule:nonzero;stroke:none"
                 d="m 192.746,659.996 180,0 0,180 -180,0 0,-180 z" /><path
                 inkscape:connector-curvature="0"
                 id="path136"
                 style="fill:none;stroke:#000000;stroke-width:7.19999981;stroke-linecap:round;stroke-linejoin:round;stroke-miterlimit:10;stroke-dasharray:none;stroke-opacity:1"
                 d="m 192.746,659.996 180,0 0,180 -180,0 0,-180 z" /><path
                 inkscape:connector-curvature="0"
                 id="path138"
                 style="fill:#ffffff;fill-opacity:1;fill-rule:nonzero;stroke:none"
                 d="m 1711.55,2010 180,0 0,180 -180,0 0,-180 z" /><path
                 inkscape:connector-curvature="0"
                 id="path140"
                 style="fill:none;stroke:#000000;stroke-width:7.19999981;stroke-linecap:round;stroke-linejoin:round;stroke-miterlimit:10;stroke-dasharray:none;stroke-opacity:1"
                 d="m 1711.55,2010 180,0 0,180 -180,0 0,-180 z" /><path
                 inkscape:connector-curvature="0"
                 id="path142"
                 style="fill:#ffffff;fill-opacity:1;fill-rule:nonzero;stroke:none"
                 d="m 1711.55,119.996 180,0 0,180 -180,0 0,-180 z" /><path
                 inkscape:connector-curvature="0"
                 id="path144"
                 style="fill:none;stroke:#000000;stroke-width:7.19999981;stroke-linecap:round;stroke-linejoin:round;stroke-miterlimit:10;stroke-dasharray:none;stroke-opacity:1"
                 d="m 1711.55,119.996 180,0 0,180 -180,0 0,-180 z m 90,1890.004 0,-270 m 0,-1440.004 0,135" /><path
                 inkscape:connector-curvature="0"
                 id="path146"
                 style="fill:#000000;fill-opacity:1;fill-rule:evenodd;stroke:none"
                 d="m 1783.45,1740 c 0,9.89 8.1,18 18.1,18 9.9,0 18,-8.11 18,-18 0,-9.91 -8.1,-18 -18,-18 -10,0 -18.1,8.09 -18.1,18" /><path
                 inkscape:connector-curvature="0"
                 id="path148"
                 style="fill:none;stroke:#000000;stroke-width:7.19999981;stroke-linecap:round;stroke-linejoin:round;stroke-miterlimit:10;stroke-dasharray:none;stroke-opacity:1"
                 d="m 1783.45,1740 c 0,9.89 8.1,18 18.1,18 9.9,0 18,-8.11 18,-18 0,-9.91 -8.1,-18 -18,-18 -10,0 -18.1,8.09 -18.1,18 z" /><path
                 inkscape:connector-curvature="0"
                 id="path150"
                 style="fill:#000000;fill-opacity:1;fill-rule:evenodd;stroke:none"
                 d="m 1783.45,434.996 c 0,9.899 8.1,18 18.1,18 9.9,0 18,-8.101 18,-18 0,-9.902 -8.1,-18 -18,-18 -10,0 -18.1,8.098 -18.1,18" /><path
                 inkscape:connector-curvature="0"
                 id="path152"
                 style="fill:none;stroke:#000000;stroke-width:7.19999981;stroke-linecap:round;stroke-linejoin:round;stroke-miterlimit:10;stroke-dasharray:none;stroke-opacity:1"
                 d="m 1783.45,434.996 c 0,9.899 8.1,18 18.1,18 9.9,0 18,-8.101 18,-18 0,-9.902 -8.1,-18 -18,-18 -10,0 -18.1,8.098 -18.1,18 z" /><g
                 transform="scale(10,10)"
                 id="g154"><text
                   id="text156"
                   style="font-variant:normal;font-weight:normal;font-size:9.99989986px;font-family:Arial;-inkscape-font-specification:ArialMT;writing-mode:lr-tb;fill:#000000;fill-opacity:1;fill-rule:nonzero;stroke:none"
                   transform="matrix(1,0,0,-1,170.455,222.5)"><tspan
                     id="tspan158"
                     sodipodi:role="line"
                     y="0"
                     x="0 2.5195348 8.0794792 13.639423 19.199368">Input</tspan><tspan
                     id="tspan160"
                     sodipodi:role="line"
                     y="150.75"
                     x="-170.41 -164.62407 -159.06412 -156.84415">Adj.</tspan><tspan
                     id="tspan162"
                     sodipodi:role="line"
                     y="220.50079"
                     x="-3.7219999 4.0579224 9.6178665 12.397839 17.957783 23.517727">Output</tspan><tspan
                     id="tspan164"
                     sodipodi:role="line"
                     y="103.4998"
                     x="-108.883 -103.32306 -100.54308 -94.983139 -89.423195 -86.643219">1.25 V</tspan></text>
</g><path
                 inkscape:connector-curvature="0"
                 id="path166"
                 style="fill:none;stroke:#000000;stroke-width:7.19999981;stroke-linecap:round;stroke-linejoin:round;stroke-miterlimit:10;stroke-dasharray:none;stroke-opacity:1"
                 d="m 813.746,1875 c 74.602,0 135,-60.4 135,-135 0,-74.61 -60.398,-135 -135,-135 -74.598,0 -135,60.39 -135,135 0,74.6 60.402,135 135,135 z" /><path
                 inkscape:connector-curvature="0"
                 id="path168"
                 style="fill:none;stroke:#000000;stroke-width:7.19999981;stroke-linecap:round;stroke-linejoin:round;stroke-miterlimit:10;stroke-dasharray:none;stroke-opacity:1"
                 d="m 1002.75,1740 -54.004,0" /><path
                 inkscape:connector-curvature="0"
                 id="path170"
                 style="fill:none;stroke:#000000;stroke-width:7.19999981;stroke-linecap:round;stroke-linejoin:round;stroke-miterlimit:10;stroke-dasharray:none;stroke-opacity:1"
                 d="m 678.746,1740 -54,0" /><path
                 inkscape:connector-curvature="0"
                 id="path172"
                 style="fill:#000000;fill-opacity:1;fill-rule:evenodd;stroke:none"
                 d="m 800.25,1693.2 -81,46.8 81,46.8 0,-93.6" /><path
                 inkscape:connector-curvature="0"
                 id="path174"
                 style="fill:none;stroke:#000000;stroke-width:2.40089989;stroke-linecap:round;stroke-linejoin:round;stroke-miterlimit:10;stroke-dasharray:none;stroke-opacity:1"
                 d="m 800.25,1693.2 -81,46.8 81,46.8 0,-93.6 z" /><path
                 inkscape:connector-curvature="0"
                 id="path176"
                 style="fill:none;stroke:#000000;stroke-width:7.19999981;stroke-linecap:round;stroke-linejoin:round;stroke-miterlimit:10;stroke-dasharray:none;stroke-opacity:1"
                 d="m 894.746,1740 -121.496,0" /><path
                 inkscape:connector-curvature="0"
                 id="path178"
                 style="fill:none;stroke:#000000;stroke-width:7.19999981;stroke-linecap:round;stroke-linejoin:round;stroke-miterlimit:10;stroke-dasharray:none;stroke-opacity:1"
                 d="m 624.746,1740 -72,0 0,-270" /><path
                 inkscape:connector-curvature="0"
                 id="path180"
                 style="fill:none;stroke:#000000;stroke-width:7.19999981;stroke-linecap:round;stroke-linejoin:round;stroke-miterlimit:10;stroke-dasharray:none;stroke-opacity:1"
                 d="m 1001.65,1740 214.9,0" /><path
                 inkscape:connector-curvature="0"
                 id="path182"
                 style="fill:#000000;fill-opacity:1;fill-rule:evenodd;stroke:none"
                 d="m 1198.55,1740 c 0,9.89 8,18 18,18 9.9,0 17.9,-8.11 17.9,-18 0,-9.91 -8,-18 -17.9,-18 -10,0 -18,8.09 -18,18" /><path
                 inkscape:connector-curvature="0"
                 id="path184"
                 style="fill:none;stroke:#000000;stroke-width:7.19999981;stroke-linecap:round;stroke-linejoin:round;stroke-miterlimit:10;stroke-dasharray:none;stroke-opacity:1"
                 d="m 1198.55,1740 c 0,9.89 8,18 18,18 9.9,0 17.9,-8.11 17.9,-18 0,-9.91 -8,-18 -17.9,-18 -10,0 -18,8.09 -18,18 z" /><g
                 transform="scale(10,10)"
                 id="g186"><text
                   id="text188"
                   style="font-variant:normal;font-weight:normal;font-size:9.99989986px;font-family:Arial;-inkscape-font-specification:ArialMT;writing-mode:lr-tb;fill:#000000;fill-opacity:1;fill-rule:nonzero;stroke:none"
                   transform="matrix(1,0,0,-1,78.0949,191)"><tspan
                     id="tspan190"
                     y="0"
                     x="0">I</tspan></text>
<text
                   id="text192"
                   style="font-variant:normal;font-weight:normal;font-size:6.49888992px;font-family:Arial;-inkscape-font-specification:ArialMT;writing-mode:lr-tb;fill:#000000;fill-opacity:1;fill-rule:nonzero;stroke:none"
                   transform="matrix(1,0,0,-1,80.61287,189.57031)"><tspan
                     id="tspan194"
                     sodipodi:role="line"
                     y="0"
                     x="0 3.6133828 7.2267656">adj</tspan></text>
</g></g></g></g></g></g></g></svg>