M48
;DRILL file {KiCad 4.0.4-stable} date 11/27/16 02:55:20
;FORMAT={-:-/ absolute / metric / decimal}
FMAT,2
METRIC,TZ
T1C0.600
T2C1.000
T3C3.000
%
G90
G05
M71
T1
X107.Y-96.
X107.Y-98.
X109.Y-96.
X109.Y-98.
X112.Y-93.
X113.5Y-93.
X115.Y-93.
X126.Y-94.
X126.Y-96.
X126.5Y-86.5
X128.Y-86.5
X128.Y-94.
X128.Y-96.
X132.969Y-81.28
X134.366Y-81.28
X137.Y-78.
X137.Y-88.
X137.Y-90.
X137.Y-102.
X137.Y-104.
X139.Y-78.
X139.Y-88.
X139.Y-90.
X139.Y-102.
X139.Y-104.
X140.991Y-90.
X141.Y-78.
X141.Y-88.
X141.Y-102.
X141.Y-104.
X143.Y-78.
X143.Y-88.
X143.Y-90.
X143.Y-102.
X143.Y-104.
X145.Y-78.
X145.Y-80.
X145.Y-82.
X145.Y-84.
X145.Y-86.
X145.Y-88.
X145.Y-90.
X145.Y-102.
X145.Y-104.
X147.Y-78.
X147.Y-80.
X147.Y-82.
X147.Y-84.
X147.Y-86.
X147.Y-88.
X147.Y-90.
X147.Y-92.
X147.Y-94.
X147.Y-96.
X147.Y-98.
X147.Y-100.
X147.Y-102.
X147.Y-104.
X149.Y-78.
X149.Y-80.
X149.Y-82.
X149.Y-84.
X149.Y-86.
X149.Y-88.
X149.Y-90.
X149.Y-92.
X149.Y-94.
X149.Y-96.
X149.Y-98.
X149.Y-100.
X149.Y-102.
X149.Y-104.
X163.Y-100.
X163.Y-102.
X163.Y-104.
X172.Y-108.
X172.Y-110.
X174.Y-108.
X174.Y-110.
X199.Y-78.
X199.Y-80.
X201.Y-78.
X201.Y-80.
T2
X100.457Y-91.77
X100.457Y-96.77
X163.004Y-107.798
X168.004Y-107.798
X181.051Y-92.685
X181.051Y-95.225
X181.051Y-97.765
X204.368Y-91.774
X204.368Y-96.774
T3
X184.544Y-82.525
X184.544Y-107.925
T0
M30
