G04 #@! TF.FileFunction,Copper,L1,Top,Signal*
%FSLAX46Y46*%
G04 Gerber Fmt 4.6, Leading zero omitted, Abs format (unit mm)*
G04 Created by KiCad (PCBNEW 4.0.4-stable) date 11/27/16 02:50:31*
%MOMM*%
%LPD*%
G01*
G04 APERTURE LIST*
%ADD10C,0.100000*%
%ADD11R,9.400000X10.800000*%
%ADD12R,4.600000X1.390000*%
%ADD13R,1.250000X1.500000*%
%ADD14R,2.230000X1.800000*%
%ADD15R,1.500000X1.250000*%
%ADD16R,3.600000X3.200000*%
%ADD17R,2.900680X5.400040*%
%ADD18R,3.048000X1.651000*%
%ADD19R,6.096000X6.096000*%
%ADD20R,1.300000X1.500000*%
%ADD21R,2.500000X2.000000*%
%ADD22R,0.890000X0.420000*%
%ADD23R,0.840000X0.940000*%
%ADD24O,2.499360X1.744980*%
%ADD25O,2.499360X1.747520*%
%ADD26C,5.000000*%
%ADD27C,2.500000*%
%ADD28R,2.500000X2.500000*%
%ADD29R,2.430000X2.370000*%
%ADD30C,1.000000*%
%ADD31C,0.400000*%
%ADD32C,0.250000*%
%ADD33C,1.000000*%
%ADD34C,0.500000*%
%ADD35C,0.254000*%
G04 APERTURE END LIST*
D10*
D11*
X141503400Y-95986600D03*
D12*
X132353400Y-98526600D03*
X132353400Y-93446600D03*
D13*
X173750000Y-93000000D03*
X173750000Y-95500000D03*
D14*
X173750000Y-102710000D03*
X173750000Y-99790000D03*
D13*
X196037200Y-85044600D03*
X196037200Y-82544600D03*
D15*
X123424000Y-81280000D03*
X120924000Y-81280000D03*
D13*
X117602000Y-83038000D03*
X117602000Y-80538000D03*
X125984000Y-83038000D03*
X125984000Y-80538000D03*
X112522000Y-90150000D03*
X112522000Y-87650000D03*
D16*
X196098600Y-91465400D03*
X187898600Y-91465400D03*
X196098600Y-99009200D03*
X187898600Y-99009200D03*
D17*
X154208480Y-85953600D03*
X164109400Y-85953600D03*
D18*
X133604000Y-81280000D03*
D19*
X139954000Y-83566000D03*
D18*
X133604000Y-85852000D03*
D20*
X177000000Y-95400000D03*
X177000000Y-98100000D03*
X196011800Y-105914200D03*
X196011800Y-108614200D03*
X112522000Y-80438000D03*
X112522000Y-83138000D03*
D21*
X129159000Y-80296000D03*
X129159000Y-84296000D03*
D20*
X115062000Y-80438000D03*
X115062000Y-83138000D03*
X115062000Y-90250000D03*
X115062000Y-87550000D03*
X117602000Y-87550000D03*
X117602000Y-90250000D03*
D22*
X119688000Y-83988000D03*
X119688000Y-84638000D03*
X119688000Y-85288000D03*
X119688000Y-85938000D03*
X123898000Y-85938000D03*
X123898000Y-85288000D03*
X123898000Y-84638000D03*
X123898000Y-83988000D03*
D23*
X122213000Y-85433000D03*
X122213000Y-84493000D03*
X121373000Y-85433000D03*
X121373000Y-84493000D03*
D24*
X181051200Y-97764600D03*
D25*
X181051200Y-95224600D03*
X181051200Y-92684600D03*
D26*
X184543700Y-107924600D03*
X184543700Y-82524600D03*
D27*
X100457000Y-91770200D03*
D28*
X100457000Y-96770200D03*
D27*
X163004500Y-107797600D03*
D28*
X168004500Y-107797600D03*
X204368400Y-96774000D03*
D27*
X204368400Y-91774000D03*
D29*
X108000000Y-85120000D03*
X108000000Y-78880000D03*
X169000000Y-97120000D03*
X169000000Y-90880000D03*
D30*
X163000000Y-100000000D03*
X163000000Y-102000000D03*
X163000000Y-104000000D03*
X115000000Y-93000000D03*
X113500000Y-93000000D03*
X112000000Y-93000000D03*
X199000000Y-80000000D03*
X199000000Y-78000000D03*
X201000000Y-78000000D03*
X201000000Y-80000000D03*
X172000000Y-110000000D03*
X174000000Y-110000000D03*
X174000000Y-108000000D03*
X172000000Y-108000000D03*
X128000000Y-96000000D03*
X126000000Y-96000000D03*
X126000000Y-94000000D03*
X128000000Y-94000000D03*
X107000000Y-96000000D03*
X109000000Y-96000000D03*
X109000000Y-98000000D03*
X107000000Y-98000000D03*
X149000000Y-78000000D03*
X149000000Y-80000000D03*
X149000000Y-82000000D03*
X149000000Y-84000000D03*
X149000000Y-86000000D03*
X149000000Y-88000000D03*
X149000000Y-90000000D03*
X149000000Y-92000000D03*
X149000000Y-94000000D03*
X149000000Y-96000000D03*
X149000000Y-98000000D03*
X149000000Y-100000000D03*
X149000000Y-102000000D03*
X149000000Y-104000000D03*
X147000000Y-104000000D03*
X145000000Y-104000000D03*
X143000000Y-104000000D03*
X141000000Y-104000000D03*
X139000000Y-104000000D03*
X137000000Y-104000000D03*
X137000000Y-102000000D03*
X139000000Y-102000000D03*
X141000000Y-102000000D03*
X143000000Y-102000000D03*
X145000000Y-102000000D03*
X147000000Y-88000000D03*
X147000000Y-86000000D03*
X147000000Y-84000000D03*
X147000000Y-82000000D03*
X147000000Y-80000000D03*
X147000000Y-78000000D03*
X137000000Y-78000000D03*
X139000000Y-78000000D03*
X141000000Y-78000000D03*
X143000000Y-78000000D03*
X145000000Y-78000000D03*
X145000000Y-80000000D03*
X145000000Y-82000000D03*
X145000000Y-84000000D03*
X145000000Y-86000000D03*
X145000000Y-88000000D03*
X143000000Y-88000000D03*
X141000000Y-88000000D03*
X139000000Y-88000000D03*
X137000000Y-88000000D03*
X147000000Y-102000000D03*
X147000000Y-100000000D03*
X147000000Y-98000000D03*
X147000000Y-96000000D03*
X147000000Y-94000000D03*
X147000000Y-92000000D03*
X147000000Y-90000000D03*
X145000000Y-90000000D03*
X143000000Y-90000000D03*
X140991000Y-90000000D03*
X139000000Y-90000000D03*
X137000000Y-90000000D03*
X128000000Y-86500000D03*
X126500000Y-86500000D03*
X132969000Y-81280000D03*
X134366000Y-81280000D03*
D31*
X115062000Y-90250000D02*
X112622000Y-90250000D01*
D32*
X163000000Y-104000000D02*
X163000000Y-102000000D01*
D33*
X112412000Y-93000000D02*
X112000000Y-93000000D01*
X115062000Y-90350000D02*
X112412000Y-93000000D01*
X115062000Y-90250000D02*
X115062000Y-90350000D01*
D31*
X112622000Y-90250000D02*
X112522000Y-90150000D01*
D32*
X122000000Y-85220000D02*
X122000000Y-85000000D01*
X122213000Y-85433000D02*
X122000000Y-85220000D01*
X199000000Y-78000000D02*
X199000000Y-80000000D01*
X201000000Y-80000000D02*
X201000000Y-78000000D01*
X174000000Y-108000000D02*
X174000000Y-110000000D01*
X168004500Y-107797600D02*
X171797600Y-107797600D01*
X171797600Y-107797600D02*
X172000000Y-108000000D01*
X126000000Y-94000000D02*
X126000000Y-96000000D01*
X132334000Y-93853000D02*
X128147000Y-93853000D01*
X128147000Y-93853000D02*
X128000000Y-94000000D01*
X109000000Y-98000000D02*
X109000000Y-96000000D01*
X104979801Y-98020199D02*
X105000000Y-98000000D01*
X105000000Y-98000000D02*
X107000000Y-98000000D01*
X100457000Y-96770200D02*
X101706999Y-98020199D01*
X101706999Y-98020199D02*
X104979801Y-98020199D01*
D31*
X121373000Y-85433000D02*
X121373000Y-85764000D01*
X121373000Y-85764000D02*
X121199000Y-85938000D01*
X121199000Y-85938000D02*
X119688000Y-85938000D01*
D33*
X196204000Y-99234000D02*
X196124000Y-99314000D01*
X196806000Y-92376000D02*
X196124000Y-91694000D01*
X203608000Y-92376000D02*
X203708000Y-92476000D01*
D32*
X123898000Y-83988000D02*
X123898000Y-81754000D01*
X123898000Y-81754000D02*
X123424000Y-81280000D01*
D31*
X129159000Y-80296000D02*
X126226000Y-80296000D01*
X126226000Y-80296000D02*
X125984000Y-80538000D01*
X117502000Y-80438000D02*
X117602000Y-80538000D01*
X112412000Y-80328000D02*
X112522000Y-80438000D01*
D33*
X115062000Y-83138000D02*
X117502000Y-83138000D01*
D31*
X119688000Y-83988000D02*
X119688000Y-83493000D01*
X119253000Y-83058000D02*
X117622000Y-83058000D01*
X119688000Y-83493000D02*
X119253000Y-83058000D01*
D33*
X117502000Y-83138000D02*
X117602000Y-83038000D01*
D31*
X117622000Y-83058000D02*
X117602000Y-83038000D01*
X123898000Y-84638000D02*
X124862000Y-84638000D01*
X124862000Y-84638000D02*
X126000000Y-83500000D01*
X126000000Y-83500000D02*
X125984000Y-83484000D01*
X125984000Y-83484000D02*
X125984000Y-83038000D01*
X119688000Y-85288000D02*
X118712000Y-85288000D01*
X117602000Y-86398000D02*
X117602000Y-87550000D01*
X118712000Y-85288000D02*
X117602000Y-86398000D01*
X117602000Y-87550000D02*
X115062000Y-87550000D01*
X115062000Y-87550000D02*
X112622000Y-87550000D01*
X112622000Y-87550000D02*
X112522000Y-87650000D01*
D34*
X141000000Y-88000000D02*
X141000000Y-84612000D01*
X141000000Y-84612000D02*
X139954000Y-83566000D01*
X149000000Y-80000000D02*
X149000000Y-78000000D01*
X149000000Y-84000000D02*
X149000000Y-82000000D01*
X149000000Y-88000000D02*
X149000000Y-86000000D01*
X149000000Y-92000000D02*
X149000000Y-90000000D01*
X149000000Y-96000000D02*
X149000000Y-94000000D01*
X149000000Y-98000000D02*
X149000000Y-96000000D01*
X149000000Y-102000000D02*
X149000000Y-100000000D01*
X145000000Y-104000000D02*
X147000000Y-104000000D01*
X141000000Y-104000000D02*
X143000000Y-104000000D01*
X137000000Y-104000000D02*
X139000000Y-104000000D01*
X139000000Y-102000000D02*
X137000000Y-102000000D01*
X143000000Y-102000000D02*
X141000000Y-102000000D01*
X147000000Y-102000000D02*
X145000000Y-102000000D01*
X147000000Y-88000000D02*
X145000000Y-88000000D01*
X147000000Y-84000000D02*
X147000000Y-86000000D01*
X147000000Y-80000000D02*
X147000000Y-82000000D01*
X141000000Y-78000000D02*
X139000000Y-78000000D01*
X145000000Y-78000000D02*
X143000000Y-78000000D01*
X145000000Y-82000000D02*
X145000000Y-80000000D01*
X145000000Y-86000000D02*
X145000000Y-84000000D01*
X143000000Y-88000000D02*
X145000000Y-88000000D01*
X139000000Y-88000000D02*
X141000000Y-88000000D01*
X137000000Y-90000000D02*
X137000000Y-88000000D01*
X147000000Y-98000000D02*
X147000000Y-100000000D01*
X147000000Y-94000000D02*
X147000000Y-96000000D01*
X147000000Y-90000000D02*
X147000000Y-92000000D01*
X143000000Y-90000000D02*
X145000000Y-90000000D01*
X140991000Y-90000000D02*
X139000000Y-90000000D01*
X139000000Y-90000000D02*
X137000000Y-90000000D01*
X141484000Y-96393000D02*
X141484000Y-90493000D01*
X141484000Y-90493000D02*
X140991000Y-90000000D01*
X139999992Y-84000000D02*
X140000000Y-83999992D01*
X138000000Y-84000000D02*
X139999992Y-84000000D01*
X140000000Y-84000000D02*
X138000000Y-84000000D01*
X138000000Y-86000000D02*
X140000000Y-84000000D01*
X140000000Y-86000000D02*
X138000000Y-86000000D01*
X141999994Y-86000000D02*
X140000000Y-86000000D01*
X142000000Y-85999994D02*
X141999994Y-86000000D01*
X142000000Y-84000000D02*
X142000000Y-85999994D01*
X141292894Y-84000000D02*
X142000000Y-84000000D01*
X138000000Y-82000000D02*
X140000000Y-84000000D01*
X140000000Y-84000000D02*
X141292894Y-84000000D01*
X140000000Y-82000000D02*
X138000000Y-82000000D01*
X140000010Y-81999990D02*
X140000000Y-82000000D01*
X142000000Y-81999990D02*
X140000010Y-81999990D01*
D31*
X140499999Y-84499999D02*
X142000000Y-82999998D01*
D34*
X142000010Y-82000000D02*
X142000000Y-81999990D01*
D31*
X142000000Y-82707096D02*
X142000000Y-81999990D01*
X141230000Y-85230000D02*
X140499999Y-84499999D01*
X142000000Y-86000000D02*
X140499999Y-84499999D01*
X142000000Y-82999998D02*
X142000000Y-82707096D01*
D34*
X154000000Y-88000000D02*
X153799540Y-87799540D01*
X154000000Y-84000000D02*
X153799540Y-84200460D01*
X140000000Y-100000000D02*
X138000000Y-100000000D01*
X144000000Y-100000000D02*
X142000000Y-100000000D01*
X140000000Y-98000000D02*
X142000000Y-98000000D01*
X138000000Y-96000000D02*
X138000000Y-98000000D01*
X142000000Y-96000000D02*
X140000000Y-96000000D01*
X140000000Y-94000000D02*
X142000000Y-94000000D01*
X142000000Y-92000000D02*
X140000000Y-92000000D01*
D31*
X123898000Y-85288000D02*
X125538000Y-85288000D01*
X125538000Y-85288000D02*
X126500000Y-86250000D01*
X126500000Y-86250000D02*
X126500000Y-86500000D01*
X126500000Y-86500000D02*
X128000000Y-86500000D01*
X132842000Y-81280000D02*
X134366000Y-81280000D01*
D32*
X123898000Y-85938000D02*
X123898000Y-86398000D01*
X131775200Y-85852000D02*
X133604000Y-85852000D01*
X129438400Y-88188800D02*
X131775200Y-85852000D01*
X125688800Y-88188800D02*
X129438400Y-88188800D01*
X123898000Y-86398000D02*
X125688800Y-88188800D01*
D31*
X129159000Y-84296000D02*
X129750000Y-84887000D01*
X129159000Y-84677000D02*
X129032000Y-84550000D01*
X119688000Y-84638000D02*
X113388000Y-84638000D01*
X113388000Y-84638000D02*
X112522000Y-83772000D01*
X112522000Y-83772000D02*
X112522000Y-83138000D01*
D35*
G36*
X174365000Y-96365000D02*
X172000000Y-96365000D01*
X171769205Y-96408427D01*
X171557233Y-96544827D01*
X171415029Y-96752949D01*
X171365000Y-97000000D01*
X171365000Y-101000000D01*
X171408427Y-101230795D01*
X171544827Y-101442767D01*
X171752949Y-101584971D01*
X172000000Y-101635000D01*
X176365000Y-101635000D01*
X176365000Y-107000000D01*
X176408427Y-107230795D01*
X176544827Y-107442767D01*
X176752949Y-107584971D01*
X177000000Y-107635000D01*
X181408952Y-107635000D01*
X181408157Y-108545454D01*
X181884427Y-109698115D01*
X182765547Y-110580774D01*
X183917374Y-111059054D01*
X185164554Y-111060143D01*
X186317215Y-110583873D01*
X186380949Y-110520250D01*
X202372545Y-110520250D01*
X202771639Y-111486132D01*
X203509981Y-112225764D01*
X204475165Y-112626543D01*
X205520250Y-112627455D01*
X206486132Y-112228361D01*
X207225764Y-111490019D01*
X207626543Y-110524835D01*
X207627455Y-109479750D01*
X207228361Y-108513868D01*
X206490019Y-107774236D01*
X205524835Y-107373457D01*
X204479750Y-107372545D01*
X203513868Y-107771639D01*
X202774236Y-108509981D01*
X202373457Y-109475165D01*
X202372545Y-110520250D01*
X186380949Y-110520250D01*
X187199874Y-109702753D01*
X187678154Y-108550926D01*
X187678954Y-107635000D01*
X199000000Y-107635000D01*
X199230795Y-107591573D01*
X199442767Y-107455173D01*
X199584971Y-107247051D01*
X199635000Y-107000000D01*
X199635000Y-94635000D01*
X209315000Y-94635000D01*
X209315000Y-114315000D01*
X165635000Y-114315000D01*
X165635000Y-94635000D01*
X174365000Y-94635000D01*
X174365000Y-96365000D01*
X174365000Y-96365000D01*
G37*
X174365000Y-96365000D02*
X172000000Y-96365000D01*
X171769205Y-96408427D01*
X171557233Y-96544827D01*
X171415029Y-96752949D01*
X171365000Y-97000000D01*
X171365000Y-101000000D01*
X171408427Y-101230795D01*
X171544827Y-101442767D01*
X171752949Y-101584971D01*
X172000000Y-101635000D01*
X176365000Y-101635000D01*
X176365000Y-107000000D01*
X176408427Y-107230795D01*
X176544827Y-107442767D01*
X176752949Y-107584971D01*
X177000000Y-107635000D01*
X181408952Y-107635000D01*
X181408157Y-108545454D01*
X181884427Y-109698115D01*
X182765547Y-110580774D01*
X183917374Y-111059054D01*
X185164554Y-111060143D01*
X186317215Y-110583873D01*
X186380949Y-110520250D01*
X202372545Y-110520250D01*
X202771639Y-111486132D01*
X203509981Y-112225764D01*
X204475165Y-112626543D01*
X205520250Y-112627455D01*
X206486132Y-112228361D01*
X207225764Y-111490019D01*
X207626543Y-110524835D01*
X207627455Y-109479750D01*
X207228361Y-108513868D01*
X206490019Y-107774236D01*
X205524835Y-107373457D01*
X204479750Y-107372545D01*
X203513868Y-107771639D01*
X202774236Y-108509981D01*
X202373457Y-109475165D01*
X202372545Y-110520250D01*
X186380949Y-110520250D01*
X187199874Y-109702753D01*
X187678154Y-108550926D01*
X187678954Y-107635000D01*
X199000000Y-107635000D01*
X199230795Y-107591573D01*
X199442767Y-107455173D01*
X199584971Y-107247051D01*
X199635000Y-107000000D01*
X199635000Y-94635000D01*
X209315000Y-94635000D01*
X209315000Y-114315000D01*
X165635000Y-114315000D01*
X165635000Y-94635000D01*
X174365000Y-94635000D01*
X174365000Y-96365000D01*
G36*
X121865000Y-82000000D02*
X121908427Y-82230795D01*
X122044827Y-82442767D01*
X122252949Y-82584971D01*
X122500000Y-82635000D01*
X122615000Y-82635000D01*
X122615000Y-84250000D01*
X122658427Y-84480795D01*
X122794827Y-84692767D01*
X122805560Y-84700101D01*
X122805560Y-84848000D01*
X122827993Y-84967222D01*
X122805560Y-85078000D01*
X122805560Y-85297276D01*
X122665029Y-85502949D01*
X122615000Y-85750000D01*
X122615000Y-88750000D01*
X122658427Y-88980795D01*
X122794827Y-89192767D01*
X123002949Y-89334971D01*
X123250000Y-89385000D01*
X135365000Y-89385000D01*
X135365000Y-100365000D01*
X95685000Y-100365000D01*
X95685000Y-94635000D01*
X105000000Y-94635000D01*
X105230795Y-94591573D01*
X105442767Y-94455173D01*
X105584971Y-94247051D01*
X105635000Y-94000000D01*
X105635000Y-82135000D01*
X110388288Y-82135000D01*
X110365000Y-82250000D01*
X110365000Y-88500000D01*
X110408427Y-88730795D01*
X110418971Y-88747180D01*
X110415029Y-88752949D01*
X110365000Y-89000000D01*
X110365000Y-94000000D01*
X110408427Y-94230795D01*
X110544827Y-94442767D01*
X110752949Y-94584971D01*
X111000000Y-94635000D01*
X119000000Y-94635000D01*
X119230795Y-94591573D01*
X119442767Y-94455173D01*
X119584971Y-94247051D01*
X119635000Y-94000000D01*
X119635000Y-92000000D01*
X119591573Y-91769205D01*
X119455173Y-91557233D01*
X119247051Y-91415029D01*
X119000000Y-91365000D01*
X116635000Y-91365000D01*
X116635000Y-89135000D01*
X119000000Y-89135000D01*
X119230795Y-89091573D01*
X119442767Y-88955173D01*
X119584971Y-88747051D01*
X119635000Y-88500000D01*
X119635000Y-86145440D01*
X120133000Y-86145440D01*
X120188484Y-86135000D01*
X120250000Y-86135000D01*
X120480795Y-86091573D01*
X120692767Y-85955173D01*
X120834971Y-85747051D01*
X120885000Y-85500000D01*
X120885000Y-84250000D01*
X120860616Y-84120411D01*
X120885000Y-84000000D01*
X120885000Y-83000000D01*
X120841573Y-82769205D01*
X120705173Y-82557233D01*
X120497051Y-82415029D01*
X120250000Y-82365000D01*
X120135000Y-82365000D01*
X120135000Y-82250000D01*
X120091573Y-82019205D01*
X119955173Y-81807233D01*
X119747051Y-81665029D01*
X119607311Y-81636731D01*
X119635000Y-81500000D01*
X119635000Y-80635000D01*
X121865000Y-80635000D01*
X121865000Y-82000000D01*
X121865000Y-82000000D01*
G37*
X121865000Y-82000000D02*
X121908427Y-82230795D01*
X122044827Y-82442767D01*
X122252949Y-82584971D01*
X122500000Y-82635000D01*
X122615000Y-82635000D01*
X122615000Y-84250000D01*
X122658427Y-84480795D01*
X122794827Y-84692767D01*
X122805560Y-84700101D01*
X122805560Y-84848000D01*
X122827993Y-84967222D01*
X122805560Y-85078000D01*
X122805560Y-85297276D01*
X122665029Y-85502949D01*
X122615000Y-85750000D01*
X122615000Y-88750000D01*
X122658427Y-88980795D01*
X122794827Y-89192767D01*
X123002949Y-89334971D01*
X123250000Y-89385000D01*
X135365000Y-89385000D01*
X135365000Y-100365000D01*
X95685000Y-100365000D01*
X95685000Y-94635000D01*
X105000000Y-94635000D01*
X105230795Y-94591573D01*
X105442767Y-94455173D01*
X105584971Y-94247051D01*
X105635000Y-94000000D01*
X105635000Y-82135000D01*
X110388288Y-82135000D01*
X110365000Y-82250000D01*
X110365000Y-88500000D01*
X110408427Y-88730795D01*
X110418971Y-88747180D01*
X110415029Y-88752949D01*
X110365000Y-89000000D01*
X110365000Y-94000000D01*
X110408427Y-94230795D01*
X110544827Y-94442767D01*
X110752949Y-94584971D01*
X111000000Y-94635000D01*
X119000000Y-94635000D01*
X119230795Y-94591573D01*
X119442767Y-94455173D01*
X119584971Y-94247051D01*
X119635000Y-94000000D01*
X119635000Y-92000000D01*
X119591573Y-91769205D01*
X119455173Y-91557233D01*
X119247051Y-91415029D01*
X119000000Y-91365000D01*
X116635000Y-91365000D01*
X116635000Y-89135000D01*
X119000000Y-89135000D01*
X119230795Y-89091573D01*
X119442767Y-88955173D01*
X119584971Y-88747051D01*
X119635000Y-88500000D01*
X119635000Y-86145440D01*
X120133000Y-86145440D01*
X120188484Y-86135000D01*
X120250000Y-86135000D01*
X120480795Y-86091573D01*
X120692767Y-85955173D01*
X120834971Y-85747051D01*
X120885000Y-85500000D01*
X120885000Y-84250000D01*
X120860616Y-84120411D01*
X120885000Y-84000000D01*
X120885000Y-83000000D01*
X120841573Y-82769205D01*
X120705173Y-82557233D01*
X120497051Y-82415029D01*
X120250000Y-82365000D01*
X120135000Y-82365000D01*
X120135000Y-82250000D01*
X120091573Y-82019205D01*
X119955173Y-81807233D01*
X119747051Y-81665029D01*
X119607311Y-81636731D01*
X119635000Y-81500000D01*
X119635000Y-80635000D01*
X121865000Y-80635000D01*
X121865000Y-82000000D01*
G36*
X209315000Y-83365000D02*
X191635000Y-83365000D01*
X191635000Y-80520250D01*
X202372545Y-80520250D01*
X202771639Y-81486132D01*
X203509981Y-82225764D01*
X204475165Y-82626543D01*
X205520250Y-82627455D01*
X206486132Y-82228361D01*
X207225764Y-81490019D01*
X207626543Y-80524835D01*
X207627455Y-79479750D01*
X207228361Y-78513868D01*
X206490019Y-77774236D01*
X205524835Y-77373457D01*
X204479750Y-77372545D01*
X203513868Y-77771639D01*
X202774236Y-78509981D01*
X202373457Y-79475165D01*
X202372545Y-80520250D01*
X191635000Y-80520250D01*
X191635000Y-75685000D01*
X209315000Y-75685000D01*
X209315000Y-83365000D01*
X209315000Y-83365000D01*
G37*
X209315000Y-83365000D02*
X191635000Y-83365000D01*
X191635000Y-80520250D01*
X202372545Y-80520250D01*
X202771639Y-81486132D01*
X203509981Y-82225764D01*
X204475165Y-82626543D01*
X205520250Y-82627455D01*
X206486132Y-82228361D01*
X207225764Y-81490019D01*
X207626543Y-80524835D01*
X207627455Y-79479750D01*
X207228361Y-78513868D01*
X206490019Y-77774236D01*
X205524835Y-77373457D01*
X204479750Y-77372545D01*
X203513868Y-77771639D01*
X202774236Y-78509981D01*
X202373457Y-79475165D01*
X202372545Y-80520250D01*
X191635000Y-80520250D01*
X191635000Y-75685000D01*
X209315000Y-75685000D01*
X209315000Y-83365000D01*
G36*
X159873000Y-114315000D02*
X95685000Y-114315000D01*
X95685000Y-110520250D01*
X97372545Y-110520250D01*
X97771639Y-111486132D01*
X98509981Y-112225764D01*
X99475165Y-112626543D01*
X100520250Y-112627455D01*
X101486132Y-112228361D01*
X102225764Y-111490019D01*
X102626543Y-110524835D01*
X102627455Y-109479750D01*
X102228361Y-108513868D01*
X101490019Y-107774236D01*
X100524835Y-107373457D01*
X99479750Y-107372545D01*
X98513868Y-107771639D01*
X97774236Y-108509981D01*
X97373457Y-109475165D01*
X97372545Y-110520250D01*
X95685000Y-110520250D01*
X95685000Y-101127000D01*
X136000000Y-101127000D01*
X136049410Y-101116994D01*
X136091035Y-101088553D01*
X136118315Y-101046159D01*
X136127000Y-101000000D01*
X136127000Y-88789505D01*
X136135000Y-88750000D01*
X136135000Y-83000000D01*
X136127000Y-82957484D01*
X136127000Y-75685000D01*
X159873000Y-75685000D01*
X159873000Y-114315000D01*
X159873000Y-114315000D01*
G37*
X159873000Y-114315000D02*
X95685000Y-114315000D01*
X95685000Y-110520250D01*
X97372545Y-110520250D01*
X97771639Y-111486132D01*
X98509981Y-112225764D01*
X99475165Y-112626543D01*
X100520250Y-112627455D01*
X101486132Y-112228361D01*
X102225764Y-111490019D01*
X102626543Y-110524835D01*
X102627455Y-109479750D01*
X102228361Y-108513868D01*
X101490019Y-107774236D01*
X100524835Y-107373457D01*
X99479750Y-107372545D01*
X98513868Y-107771639D01*
X97774236Y-108509981D01*
X97373457Y-109475165D01*
X97372545Y-110520250D01*
X95685000Y-110520250D01*
X95685000Y-101127000D01*
X136000000Y-101127000D01*
X136049410Y-101116994D01*
X136091035Y-101088553D01*
X136118315Y-101046159D01*
X136127000Y-101000000D01*
X136127000Y-88789505D01*
X136135000Y-88750000D01*
X136135000Y-83000000D01*
X136127000Y-82957484D01*
X136127000Y-75685000D01*
X159873000Y-75685000D01*
X159873000Y-114315000D01*
G36*
X130873000Y-81873000D02*
X127747493Y-81873000D01*
X127705173Y-81807233D01*
X127497051Y-81665029D01*
X127250000Y-81615000D01*
X124750000Y-81615000D01*
X124519205Y-81658427D01*
X124307233Y-81794827D01*
X124165029Y-82002949D01*
X124115000Y-82250000D01*
X124115000Y-83780560D01*
X123453000Y-83780560D01*
X123377000Y-83794860D01*
X123377000Y-82000000D01*
X123366994Y-81950590D01*
X123338553Y-81908965D01*
X123296159Y-81881685D01*
X123250000Y-81873000D01*
X122627000Y-81873000D01*
X122627000Y-80000000D01*
X122616994Y-79950590D01*
X122588553Y-79908965D01*
X122546159Y-79881685D01*
X122500000Y-79873000D01*
X119000000Y-79873000D01*
X118950590Y-79883006D01*
X118908965Y-79911447D01*
X118881685Y-79953841D01*
X118873000Y-80000000D01*
X118873000Y-81373000D01*
X105000000Y-81373000D01*
X104950590Y-81383006D01*
X104908965Y-81411447D01*
X104881685Y-81453841D01*
X104873000Y-81500000D01*
X104873000Y-93873000D01*
X95685000Y-93873000D01*
X95685000Y-80520250D01*
X97372545Y-80520250D01*
X97771639Y-81486132D01*
X98509981Y-82225764D01*
X99475165Y-82626543D01*
X100520250Y-82627455D01*
X101486132Y-82228361D01*
X102225764Y-81490019D01*
X102626543Y-80524835D01*
X102627455Y-79479750D01*
X102228361Y-78513868D01*
X101490019Y-77774236D01*
X100524835Y-77373457D01*
X99479750Y-77372545D01*
X98513868Y-77771639D01*
X97774236Y-78509981D01*
X97373457Y-79475165D01*
X97372545Y-80520250D01*
X95685000Y-80520250D01*
X95685000Y-75685000D01*
X130873000Y-75685000D01*
X130873000Y-81873000D01*
X130873000Y-81873000D01*
G37*
X130873000Y-81873000D02*
X127747493Y-81873000D01*
X127705173Y-81807233D01*
X127497051Y-81665029D01*
X127250000Y-81615000D01*
X124750000Y-81615000D01*
X124519205Y-81658427D01*
X124307233Y-81794827D01*
X124165029Y-82002949D01*
X124115000Y-82250000D01*
X124115000Y-83780560D01*
X123453000Y-83780560D01*
X123377000Y-83794860D01*
X123377000Y-82000000D01*
X123366994Y-81950590D01*
X123338553Y-81908965D01*
X123296159Y-81881685D01*
X123250000Y-81873000D01*
X122627000Y-81873000D01*
X122627000Y-80000000D01*
X122616994Y-79950590D01*
X122588553Y-79908965D01*
X122546159Y-79881685D01*
X122500000Y-79873000D01*
X119000000Y-79873000D01*
X118950590Y-79883006D01*
X118908965Y-79911447D01*
X118881685Y-79953841D01*
X118873000Y-80000000D01*
X118873000Y-81373000D01*
X105000000Y-81373000D01*
X104950590Y-81383006D01*
X104908965Y-81411447D01*
X104881685Y-81453841D01*
X104873000Y-81500000D01*
X104873000Y-93873000D01*
X95685000Y-93873000D01*
X95685000Y-80520250D01*
X97372545Y-80520250D01*
X97771639Y-81486132D01*
X98509981Y-82225764D01*
X99475165Y-82626543D01*
X100520250Y-82627455D01*
X101486132Y-82228361D01*
X102225764Y-81490019D01*
X102626543Y-80524835D01*
X102627455Y-79479750D01*
X102228361Y-78513868D01*
X101490019Y-77774236D01*
X100524835Y-77373457D01*
X99479750Y-77372545D01*
X98513868Y-77771639D01*
X97774236Y-78509981D01*
X97373457Y-79475165D01*
X97372545Y-80520250D01*
X95685000Y-80520250D01*
X95685000Y-75685000D01*
X130873000Y-75685000D01*
X130873000Y-81873000D01*
G36*
X190873000Y-83388897D02*
X190769205Y-83408427D01*
X190557233Y-83544827D01*
X190415029Y-83752949D01*
X190365000Y-84000000D01*
X190365000Y-93365000D01*
X175000000Y-93365000D01*
X174769205Y-93408427D01*
X174557233Y-93544827D01*
X174415029Y-93752949D01*
X174390718Y-93873000D01*
X165000000Y-93873000D01*
X164950590Y-93883006D01*
X164908965Y-93911447D01*
X164881685Y-93953841D01*
X164873000Y-94000000D01*
X164873000Y-114315000D01*
X161127000Y-114315000D01*
X161127000Y-83145454D01*
X181408157Y-83145454D01*
X181884427Y-84298115D01*
X182765547Y-85180774D01*
X183917374Y-85659054D01*
X185164554Y-85660143D01*
X186317215Y-85183873D01*
X187199874Y-84302753D01*
X187678154Y-83150926D01*
X187679243Y-81903746D01*
X187202973Y-80751085D01*
X186321853Y-79868426D01*
X185170026Y-79390146D01*
X183922846Y-79389057D01*
X182770185Y-79865327D01*
X181887526Y-80746447D01*
X181409246Y-81898274D01*
X181408157Y-83145454D01*
X161127000Y-83145454D01*
X161127000Y-75685000D01*
X190873000Y-75685000D01*
X190873000Y-83388897D01*
X190873000Y-83388897D01*
G37*
X190873000Y-83388897D02*
X190769205Y-83408427D01*
X190557233Y-83544827D01*
X190415029Y-83752949D01*
X190365000Y-84000000D01*
X190365000Y-93365000D01*
X175000000Y-93365000D01*
X174769205Y-93408427D01*
X174557233Y-93544827D01*
X174415029Y-93752949D01*
X174390718Y-93873000D01*
X165000000Y-93873000D01*
X164950590Y-93883006D01*
X164908965Y-93911447D01*
X164881685Y-93953841D01*
X164873000Y-94000000D01*
X164873000Y-114315000D01*
X161127000Y-114315000D01*
X161127000Y-83145454D01*
X181408157Y-83145454D01*
X181884427Y-84298115D01*
X182765547Y-85180774D01*
X183917374Y-85659054D01*
X185164554Y-85660143D01*
X186317215Y-85183873D01*
X187199874Y-84302753D01*
X187678154Y-83150926D01*
X187679243Y-81903746D01*
X187202973Y-80751085D01*
X186321853Y-79868426D01*
X185170026Y-79390146D01*
X183922846Y-79389057D01*
X182770185Y-79865327D01*
X181887526Y-80746447D01*
X181409246Y-81898274D01*
X181408157Y-83145454D01*
X161127000Y-83145454D01*
X161127000Y-75685000D01*
X190873000Y-75685000D01*
X190873000Y-83388897D01*
G36*
X209315000Y-93873000D02*
X199000000Y-93873000D01*
X198950590Y-93883006D01*
X198908965Y-93911447D01*
X198881685Y-93953841D01*
X198873000Y-94000000D01*
X198873000Y-96365000D01*
X193000000Y-96365000D01*
X192769205Y-96408427D01*
X192557233Y-96544827D01*
X192415029Y-96752949D01*
X192365000Y-97000000D01*
X192365000Y-101365000D01*
X185635000Y-101365000D01*
X185635000Y-97000000D01*
X185591573Y-96769205D01*
X185455173Y-96557233D01*
X185247051Y-96415029D01*
X185000000Y-96365000D01*
X182007711Y-96365000D01*
X181465313Y-96257110D01*
X180637087Y-96257110D01*
X180094689Y-96365000D01*
X175127000Y-96365000D01*
X175127000Y-94127000D01*
X180304744Y-94127000D01*
X180638357Y-94193360D01*
X181464043Y-94193360D01*
X181797656Y-94127000D01*
X191000000Y-94127000D01*
X191049410Y-94116994D01*
X191091035Y-94088553D01*
X191118315Y-94046159D01*
X191127000Y-94000000D01*
X191127000Y-84127000D01*
X209315000Y-84127000D01*
X209315000Y-93873000D01*
X209315000Y-93873000D01*
G37*
X209315000Y-93873000D02*
X199000000Y-93873000D01*
X198950590Y-93883006D01*
X198908965Y-93911447D01*
X198881685Y-93953841D01*
X198873000Y-94000000D01*
X198873000Y-96365000D01*
X193000000Y-96365000D01*
X192769205Y-96408427D01*
X192557233Y-96544827D01*
X192415029Y-96752949D01*
X192365000Y-97000000D01*
X192365000Y-101365000D01*
X185635000Y-101365000D01*
X185635000Y-97000000D01*
X185591573Y-96769205D01*
X185455173Y-96557233D01*
X185247051Y-96415029D01*
X185000000Y-96365000D01*
X182007711Y-96365000D01*
X181465313Y-96257110D01*
X180637087Y-96257110D01*
X180094689Y-96365000D01*
X175127000Y-96365000D01*
X175127000Y-94127000D01*
X180304744Y-94127000D01*
X180638357Y-94193360D01*
X181464043Y-94193360D01*
X181797656Y-94127000D01*
X191000000Y-94127000D01*
X191049410Y-94116994D01*
X191091035Y-94088553D01*
X191118315Y-94046159D01*
X191127000Y-94000000D01*
X191127000Y-84127000D01*
X209315000Y-84127000D01*
X209315000Y-93873000D01*
G36*
X184873000Y-102000000D02*
X184883006Y-102049410D01*
X184911447Y-102091035D01*
X184953841Y-102118315D01*
X185000000Y-102127000D01*
X193000000Y-102127000D01*
X193049410Y-102116994D01*
X193091035Y-102088553D01*
X193118315Y-102046159D01*
X193127000Y-102000000D01*
X193127000Y-97127000D01*
X198873000Y-97127000D01*
X198873000Y-106873000D01*
X187501262Y-106873000D01*
X187202973Y-106151085D01*
X186321853Y-105268426D01*
X185170026Y-104790146D01*
X183922846Y-104789057D01*
X182770185Y-105265327D01*
X181887526Y-106146447D01*
X181585835Y-106873000D01*
X177127000Y-106873000D01*
X177127000Y-101000000D01*
X177116994Y-100950590D01*
X177088553Y-100908965D01*
X177046159Y-100881685D01*
X177000000Y-100873000D01*
X172127000Y-100873000D01*
X172127000Y-97127000D01*
X184873000Y-97127000D01*
X184873000Y-102000000D01*
X184873000Y-102000000D01*
G37*
X184873000Y-102000000D02*
X184883006Y-102049410D01*
X184911447Y-102091035D01*
X184953841Y-102118315D01*
X185000000Y-102127000D01*
X193000000Y-102127000D01*
X193049410Y-102116994D01*
X193091035Y-102088553D01*
X193118315Y-102046159D01*
X193127000Y-102000000D01*
X193127000Y-97127000D01*
X198873000Y-97127000D01*
X198873000Y-106873000D01*
X187501262Y-106873000D01*
X187202973Y-106151085D01*
X186321853Y-105268426D01*
X185170026Y-104790146D01*
X183922846Y-104789057D01*
X182770185Y-105265327D01*
X181887526Y-106146447D01*
X181585835Y-106873000D01*
X177127000Y-106873000D01*
X177127000Y-101000000D01*
X177116994Y-100950590D01*
X177088553Y-100908965D01*
X177046159Y-100881685D01*
X177000000Y-100873000D01*
X172127000Y-100873000D01*
X172127000Y-97127000D01*
X184873000Y-97127000D01*
X184873000Y-102000000D01*
G36*
X115873000Y-92000000D02*
X115883006Y-92049410D01*
X115911447Y-92091035D01*
X115953841Y-92118315D01*
X116000000Y-92127000D01*
X118873000Y-92127000D01*
X118873000Y-93873000D01*
X111127000Y-93873000D01*
X111127000Y-89127000D01*
X115873000Y-89127000D01*
X115873000Y-92000000D01*
X115873000Y-92000000D01*
G37*
X115873000Y-92000000D02*
X115883006Y-92049410D01*
X115911447Y-92091035D01*
X115953841Y-92118315D01*
X116000000Y-92127000D01*
X118873000Y-92127000D01*
X118873000Y-93873000D01*
X111127000Y-93873000D01*
X111127000Y-89127000D01*
X115873000Y-89127000D01*
X115873000Y-92000000D01*
G36*
X118613748Y-85638186D02*
X118595560Y-85728000D01*
X118595560Y-86148000D01*
X118639838Y-86383317D01*
X118778910Y-86599441D01*
X118873000Y-86663730D01*
X118873000Y-88373000D01*
X116039505Y-88373000D01*
X116000000Y-88365000D01*
X111127000Y-88365000D01*
X111127000Y-85635000D01*
X118612428Y-85635000D01*
X118613748Y-85638186D01*
X118613748Y-85638186D01*
G37*
X118613748Y-85638186D02*
X118595560Y-85728000D01*
X118595560Y-86148000D01*
X118639838Y-86383317D01*
X118778910Y-86599441D01*
X118873000Y-86663730D01*
X118873000Y-88373000D01*
X116039505Y-88373000D01*
X116000000Y-88365000D01*
X111127000Y-88365000D01*
X111127000Y-85635000D01*
X118612428Y-85635000D01*
X118613748Y-85638186D01*
G36*
X135373000Y-88623000D02*
X123377000Y-88623000D01*
X123377000Y-86130050D01*
X123453000Y-86145440D01*
X124343000Y-86145440D01*
X124462258Y-86123000D01*
X124749933Y-86123000D01*
X124794827Y-86192767D01*
X125002949Y-86334971D01*
X125115000Y-86357662D01*
X125115000Y-87250000D01*
X125158427Y-87480795D01*
X125294827Y-87692767D01*
X125502949Y-87834971D01*
X125750000Y-87885000D01*
X128750000Y-87885000D01*
X128980795Y-87841573D01*
X129192767Y-87705173D01*
X129334971Y-87497051D01*
X129385000Y-87250000D01*
X129385000Y-85750000D01*
X129341573Y-85519205D01*
X129205173Y-85307233D01*
X128997051Y-85165029D01*
X128750000Y-85115000D01*
X128135000Y-85115000D01*
X128135000Y-85000000D01*
X128091573Y-84769205D01*
X127955173Y-84557233D01*
X127883348Y-84508157D01*
X127885000Y-84500000D01*
X127885000Y-83127000D01*
X135373000Y-83127000D01*
X135373000Y-88623000D01*
X135373000Y-88623000D01*
G37*
X135373000Y-88623000D02*
X123377000Y-88623000D01*
X123377000Y-86130050D01*
X123453000Y-86145440D01*
X124343000Y-86145440D01*
X124462258Y-86123000D01*
X124749933Y-86123000D01*
X124794827Y-86192767D01*
X125002949Y-86334971D01*
X125115000Y-86357662D01*
X125115000Y-87250000D01*
X125158427Y-87480795D01*
X125294827Y-87692767D01*
X125502949Y-87834971D01*
X125750000Y-87885000D01*
X128750000Y-87885000D01*
X128980795Y-87841573D01*
X129192767Y-87705173D01*
X129334971Y-87497051D01*
X129385000Y-87250000D01*
X129385000Y-85750000D01*
X129341573Y-85519205D01*
X129205173Y-85307233D01*
X128997051Y-85165029D01*
X128750000Y-85115000D01*
X128135000Y-85115000D01*
X128135000Y-85000000D01*
X128091573Y-84769205D01*
X127955173Y-84557233D01*
X127883348Y-84508157D01*
X127885000Y-84500000D01*
X127885000Y-83127000D01*
X135373000Y-83127000D01*
X135373000Y-88623000D01*
G36*
X119373000Y-83000000D02*
X119383006Y-83049410D01*
X119411447Y-83091035D01*
X119453841Y-83118315D01*
X119500000Y-83127000D01*
X120123000Y-83127000D01*
X120123000Y-83780560D01*
X119243000Y-83780560D01*
X119123742Y-83803000D01*
X114127000Y-83803000D01*
X114127000Y-82377000D01*
X119373000Y-82377000D01*
X119373000Y-83000000D01*
X119373000Y-83000000D01*
G37*
X119373000Y-83000000D02*
X119383006Y-83049410D01*
X119411447Y-83091035D01*
X119453841Y-83118315D01*
X119500000Y-83127000D01*
X120123000Y-83127000D01*
X120123000Y-83780560D01*
X119243000Y-83780560D01*
X119123742Y-83803000D01*
X114127000Y-83803000D01*
X114127000Y-82377000D01*
X119373000Y-82377000D01*
X119373000Y-83000000D01*
G36*
X113365000Y-84000000D02*
X113408427Y-84230795D01*
X113544827Y-84442767D01*
X113752949Y-84584971D01*
X114000000Y-84635000D01*
X118215203Y-84635000D01*
X118121566Y-84697566D01*
X117946132Y-84873000D01*
X111127000Y-84873000D01*
X111127000Y-82377000D01*
X113365000Y-82377000D01*
X113365000Y-84000000D01*
X113365000Y-84000000D01*
G37*
X113365000Y-84000000D02*
X113408427Y-84230795D01*
X113544827Y-84442767D01*
X113752949Y-84584971D01*
X114000000Y-84635000D01*
X118215203Y-84635000D01*
X118121566Y-84697566D01*
X117946132Y-84873000D01*
X111127000Y-84873000D01*
X111127000Y-82377000D01*
X113365000Y-82377000D01*
X113365000Y-84000000D01*
G36*
X127261560Y-85296000D02*
X127305838Y-85531317D01*
X127373000Y-85635690D01*
X127373000Y-85750000D01*
X127383006Y-85799410D01*
X127411447Y-85841035D01*
X127453841Y-85868315D01*
X127500000Y-85877000D01*
X127634526Y-85877000D01*
X127657110Y-85892431D01*
X127909000Y-85943440D01*
X128623000Y-85943440D01*
X128623000Y-87123000D01*
X125877000Y-87123000D01*
X125877000Y-85750000D01*
X125866994Y-85700590D01*
X125838553Y-85658965D01*
X125796159Y-85631685D01*
X125750000Y-85623000D01*
X125377000Y-85623000D01*
X125377000Y-85278837D01*
X125452434Y-85228434D01*
X125545868Y-85135000D01*
X127250000Y-85135000D01*
X127261560Y-85132825D01*
X127261560Y-85296000D01*
X127261560Y-85296000D01*
G37*
X127261560Y-85296000D02*
X127305838Y-85531317D01*
X127373000Y-85635690D01*
X127373000Y-85750000D01*
X127383006Y-85799410D01*
X127411447Y-85841035D01*
X127453841Y-85868315D01*
X127500000Y-85877000D01*
X127634526Y-85877000D01*
X127657110Y-85892431D01*
X127909000Y-85943440D01*
X128623000Y-85943440D01*
X128623000Y-87123000D01*
X125877000Y-87123000D01*
X125877000Y-85750000D01*
X125866994Y-85700590D01*
X125838553Y-85658965D01*
X125796159Y-85631685D01*
X125750000Y-85623000D01*
X125377000Y-85623000D01*
X125377000Y-85278837D01*
X125452434Y-85228434D01*
X125545868Y-85135000D01*
X127250000Y-85135000D01*
X127261560Y-85132825D01*
X127261560Y-85296000D01*
G36*
X127123000Y-84373000D02*
X124955002Y-84373000D01*
X124990440Y-84198000D01*
X124990440Y-83778000D01*
X124946162Y-83542683D01*
X124877000Y-83435202D01*
X124877000Y-82377000D01*
X127123000Y-82377000D01*
X127123000Y-84373000D01*
X127123000Y-84373000D01*
G37*
X127123000Y-84373000D02*
X124955002Y-84373000D01*
X124990440Y-84198000D01*
X124990440Y-83778000D01*
X124946162Y-83542683D01*
X124877000Y-83435202D01*
X124877000Y-82377000D01*
X127123000Y-82377000D01*
X127123000Y-84373000D01*
M02*
